<svg xmlns="http://www.w3.org/2000/svg" width="84.996" height="66.297" viewBox="0 0 84.996 66.297"><defs><style>.a{fill:none;}.b{fill:#fff;}</style></defs><g transform="translate(-306.669 -1428.161)"><rect class="a" width="84.996" height="66.297" transform="translate(306.669 1428.161)"/><g transform="translate(4.707 1.99)"><path class="b" d="M42.668,21.942V19.848l3.1-1.635v3.711c0,1.617.721,2.561,2.109,2.561,1.405,0,2.109-.926,2.109-2.525V15.987l3.069-1.619h.031v7.556c0,3.487-2.235,5.176-5.246,5.176C44.795,27.1,42.668,25.447,42.668,21.942Zm-12.317,2.3a2.633,2.633,0,1,1,5.245-.016,2.633,2.633,0,1,1-5.245.016Zm1.361-.008c0,1.1.47,1.8,1.257,1.8s1.259-.7,1.259-1.8-.462-1.8-1.259-1.8S31.712,23.131,31.712,24.229Zm6.5.866h-.374V27H36.48V21.462H38.4c1.33,0,2.109.61,2.109,1.748a1.6,1.6,0,0,1-1.019,1.572L40.8,26.82l-1.392.232Zm-.382-.987h.422c.581,0,.924-.289.924-.818s-.319-.794-.908-.794h-.438ZM23.417,25.849H21.531L21.149,27H19.82l1.974-5.558h1.5l1.91,5.39-1.369.224Zm-1.568-1.075h1.242L22.47,22.85Zm4.9,2.246-1.926-5.39,1.479-.224,1.227,3.88,1.194-3.825h1.4L28.146,27.02ZM15.88,27V21.462H19.3v1.1H17.217v1.011h1.592l.174,1.13H17.217v1.2h2.157V27Zm-5.693,0V21.462h1.887a2.607,2.607,0,0,1,2.913,2.758A2.615,2.615,0,0,1,12.114,27Zm1.362-1.067h.494c.971,0,1.575-.513,1.575-1.7a1.488,1.488,0,0,0-1.575-1.7h-.494ZM7.927,27,5.762,23.684V27H4.5V21.462H5.817L7.84,24.557V21.462H9.1V27ZM.159,27V21.462H3.581v1.1H1.5v1.011H3.088l.175,1.13H1.5v1.2H3.653V27Zm55.056-.1V14.368h4c3.029,0,4.885,1.362,4.885,4.086,0,2.834-2,4.286-5.011,4.286H58.3V26.9Zm3.046-6.5h.721c1.371,0,2.127-.6,2.127-1.888,0-1.2-.7-1.8-2.073-1.8H58.26ZM9.951,12.483c0-3.888,2.415-6.5,5.948-6.5a6.913,6.913,0,0,1,3.444.817l-.432,2.8a4.555,4.555,0,0,0-2.776-1.018c-1.875,0-3.1,1.435-3.1,3.887,0,2.507,1.388,3.888,3.263,3.888a5.671,5.671,0,0,0,2.83-.872l.4,2.543a7.106,7.106,0,0,1-3.534.926C12.223,18.949,9.951,16.406,9.951,12.483ZM0,17.932.451,15.28A8.773,8.773,0,0,0,4.4,16.442c.883,0,1.5-.381,1.5-1.126,0-.709-.36-1.035-2.109-1.708C1.3,12.646.217,11.829.217,9.758c0-2.415,1.875-3.706,4.254-3.706a7.86,7.86,0,0,1,3.75.836L7.753,9.5A6.771,6.771,0,0,0,4.507,8.487c-.937,0-1.387.4-1.387.981,0,.636.342.944,1.893,1.543,2.7,1,3.786,1.944,3.786,3.942,0,2.725-1.982,3.923-4.453,3.923A10.157,10.157,0,0,1,0,17.932Zm28.519-1.8H24.247l-.865,2.6H20.371L24.841,6.144H28.23l4.327,12.205-3.1.509ZM24.968,13.7H27.78L26.374,9.34Zm17.7-7.5H50.42V8.687H45.7v2.289H49.3l.4,2.561h-4v2.707h1.64L42.669,18.73ZM33.926,18.73V6.2h3.083v9.844h3.822l.414,2.688ZM32.91,1.265h.24l.052.3a.8.8,0,0,1,.615-.351c.431,0,.785.372.785,1.229,0,.91-.441,1.292-.918,1.292a1.157,1.157,0,0,1-.446-.087V4.6l-.328.056Zm.328.589v1.5a.8.8,0,0,0,.395.1c.37,0,.641-.275.641-1.008,0-.651-.225-.935-.508-.935A.755.755,0,0,0,33.238,1.854ZM19.116,1.265h.241l.051.3a.805.805,0,0,1,.616-.351c.431,0,.785.372.785,1.229,0,.91-.442,1.292-.918,1.292a1.161,1.161,0,0,1-.447-.087V4.6l-.328.056Zm.328.589v1.5a.8.8,0,0,0,.395.1c.37,0,.641-.275.641-1.008,0-.651-.225-.935-.508-.935A.756.756,0,0,0,19.444,1.854ZM6.291,1.265h.24l.052.3A.8.8,0,0,1,7.2,1.214c.431,0,.785.372.785,1.229,0,.91-.441,1.292-.917,1.292a1.154,1.154,0,0,1-.446-.087V4.6l-.328.056Zm.328.589v1.5a.8.8,0,0,0,.395.1c.369,0,.641-.275.641-1.008,0-.651-.226-.935-.508-.935A.755.755,0,0,0,6.619,1.854Zm41.972.635c0-.764.334-1.275.893-1.275s.9.506.9,1.271-.344,1.271-.908,1.271S48.591,3.255,48.591,2.489Zm.329,0c0,.542.184.991.564.991s.568-.439.568-.987-.189-.991-.574-.991S48.92,1.942,48.92,2.485ZM46,2.532c0-.91.441-1.3.918-1.3a1.1,1.1,0,0,1,.447.093V.061L47.689,0V3.71h-.241l-.051-.3a.773.773,0,0,1-.605.346C46.361,3.756,46,3.389,46,2.532Zm.323-.005c0,.651.226.935.513.935a.765.765,0,0,0,.528-.34v-1.5a.854.854,0,0,0-.4-.1C46.6,1.519,46.325,1.793,46.325,2.526Zm-4.2-.042c0-.718.329-1.271.856-1.271.564,0,.79.542.79,1.213v.125H42.454c.015.557.23.919.595.919a1.017,1.017,0,0,0,.661-.263l.051.294a1.149,1.149,0,0,1-.742.254C42.469,3.756,42.125,3.27,42.125,2.485Zm.338-.186h.98c-.021-.491-.19-.816-.462-.816C42.684,1.482,42.5,1.839,42.463,2.3Zm-7.076.807c0-.558.436-.847,1.21-.951V1.931c0-.3-.148-.423-.39-.423a1.157,1.157,0,0,0-.61.212l-.046-.3a1.427,1.427,0,0,1,.707-.206c.431,0,.662.222.662.692v1.8h-.241l-.042-.274a.89.89,0,0,1-.651.32A.583.583,0,0,1,35.387,3.105Zm.323-.016c0,.242.133.381.327.381a.782.782,0,0,0,.56-.315V2.417C35.956,2.5,35.71,2.754,35.71,3.09Zm-14.117.016c0-.558.435-.847,1.209-.951V1.931c0-.3-.148-.423-.39-.423a1.159,1.159,0,0,0-.61.212l-.046-.3a1.424,1.424,0,0,1,.707-.206c.431,0,.662.222.662.692v1.8h-.241l-.041-.274a.892.892,0,0,1-.651.32A.583.583,0,0,1,21.593,3.105Zm.323-.016c0,.242.133.381.329.381a.782.782,0,0,0,.558-.315V2.417C22.161,2.5,21.916,2.754,21.916,3.09Zm-6.748.016c0-.558.435-.847,1.21-.951V1.931c0-.3-.149-.423-.39-.423a1.154,1.154,0,0,0-.61.212l-.046-.3a1.429,1.429,0,0,1,.707-.206c.431,0,.662.222.662.692v1.8h-.24l-.042-.274a.892.892,0,0,1-.651.32A.584.584,0,0,1,15.168,3.105Zm.323-.016c0,.242.133.381.329.381a.784.784,0,0,0,.559-.315V2.417C15.736,2.5,15.49,2.754,15.49,3.09Zm-2.549.47.052-.31a1.179,1.179,0,0,0,.646.227.374.374,0,0,0,.416-.377c0-.2-.1-.33-.447-.517-.425-.217-.6-.4-.6-.744a.628.628,0,0,1,.661-.625,1.13,1.13,0,0,1,.574.14l-.051.3A1.014,1.014,0,0,0,13.67,1.5a.322.322,0,0,0-.348.32c0,.185.087.31.45.5.425.217.595.418.595.77a.671.671,0,0,1-.743.672A1.279,1.279,0,0,1,12.941,3.56Zm-2.41-1.075c0-.718.329-1.271.856-1.271.564,0,.79.542.79,1.213v.125H10.86c.015.557.23.919.595.919a1.019,1.019,0,0,0,.661-.263l.052.294a1.153,1.153,0,0,1-.743.254C10.875,3.756,10.531,3.27,10.531,2.485ZM10.87,2.3h.98c-.021-.491-.19-.816-.462-.816C11.09,1.482,10.906,1.839,10.87,2.3Zm18.21.191c0-.758.354-1.271.918-1.271a.868.868,0,0,1,.589.207l-.052.33a.8.8,0,0,0-.549-.243c-.374,0-.574.428-.574.971s.195.982.6.982a.815.815,0,0,0,.548-.248l.046.3a.945.945,0,0,1-.625.228C29.4,3.75,29.08,3.244,29.08,2.489Zm11.5.713V1.544h-.323V1.265h.323V.418l.318-.057v.9h.446l.046.279h-.492V3.151c0,.217.077.305.3.305a.917.917,0,0,0,.18-.021l.041.274a1.051,1.051,0,0,1-.272.035C40.8,3.745,40.576,3.616,40.576,3.2ZM26.07,3.2V1.544h-.323V1.265h.323V.418l.318-.057v.9h.446l.046.279h-.492V3.151c0,.217.077.305.3.305a.917.917,0,0,0,.18-.021l.042.274a1.04,1.04,0,0,1-.272.035C26.3,3.745,26.07,3.616,26.07,3.2Zm13.05.507V1.88c0-.232-.093-.372-.3-.372a.894.894,0,0,0-.574.336V3.71H37.92V1.265h.241l.051.311a1.021,1.021,0,0,1,.677-.362c.37,0,.559.206.559.593v1.9Zm-7.589,0V1.265h.328V3.71Zm-3.723,0V1.265h.328V3.71Zm-3.682,0V1.265h.241l.056.378a.825.825,0,0,1,.647-.418l.051.32a.834.834,0,0,0-.667.439V3.71Zm-15.22,0V1.265h.241l.056.378a.825.825,0,0,1,.646-.418l.052.32a.831.831,0,0,0-.667.439V3.71Zm-3.939,0V1.869c0-.227-.093-.361-.292-.361a.865.865,0,0,0-.559.33V3.71H3.793V1.869c0-.227-.091-.361-.292-.361a.857.857,0,0,0-.553.33V3.71H2.62V1.265H2.86l.051.311a1.03,1.03,0,0,1,.666-.362.471.471,0,0,1,.509.351,1.04,1.04,0,0,1,.661-.351c.354,0,.539.206.539.589V3.71Zm-4.82,0V.144H1.68V.449H.486v1.24h.943l.052.305h-1V3.4H1.732V3.71ZM31.469.486a.23.23,0,0,1,.226-.233.235.235,0,0,1,0,.47A.232.232,0,0,1,31.469.486Zm-3.722,0a.23.23,0,0,1,.226-.233.235.235,0,0,1,0,.47A.231.231,0,0,1,27.747.486Z" transform="translate(312.409 1445.77)"/></g></g></svg>