<svg xmlns="http://www.w3.org/2000/svg" width="30" height="30" viewBox="0 0 30 30"><defs><style>.a{fill:#c6c6c6;}.b{fill:none;}</style></defs><g transform="translate(-213 -4547)"><g transform="translate(213 4550)"><path class="a" d="M84.235,122.046c10.974,0,16.978-9.1,16.978-16.978,0-.256,0-.512-.012-.768a12.157,12.157,0,0,0,2.979-3.1,12.093,12.093,0,0,1-3.433.943,6,6,0,0,0,2.63-3.3,11.87,11.87,0,0,1-3.794,1.443,5.969,5.969,0,0,0-10.322,4.085,6.6,6.6,0,0,0,.151,1.362,16.945,16.945,0,0,1-12.3-6.237,5.991,5.991,0,0,0,1.85,7.971,6.036,6.036,0,0,1-2.7-.745v.081a5.98,5.98,0,0,0,4.783,5.853,6,6,0,0,1-2.688.1,5.967,5.967,0,0,0,5.574,4.143,11.968,11.968,0,0,1-7.413,2.56,11.484,11.484,0,0,1-1.42-.081,16.974,16.974,0,0,0,9.135,2.665" transform="translate(-75.1 -98.4)"/></g><rect class="b" width="30" height="30" transform="translate(213 4547)"/></g></svg>