<svg xmlns="http://www.w3.org/2000/svg" width="47.816" height="37.617" viewBox="0 0 47.816 37.617"><defs><style>.a,.b{fill:#0cd7fb;}.b{stroke:#135df5;stroke-linecap:round;stroke-linejoin:round;stroke-width:20px;}</style></defs><g transform="translate(0 0)"><path class="a" d="M161.564,597.211H126.252c-3.447,0-6.252-3.187-6.252-7.1V566.7c0-3.917,2.8-7.1,6.252-7.1h35.312c3.447,0,6.252,3.187,6.252,7.1v23.409C167.816,594.024,165.011,597.211,161.564,597.211Zm-35.312-33.437a2.769,2.769,0,0,0-2.574,2.924v23.409a2.769,2.769,0,0,0,2.574,2.925h35.312a2.769,2.769,0,0,0,2.574-2.925V566.7a2.769,2.769,0,0,0-2.574-2.924Z" transform="translate(-120 -559.594)"/></g><g transform="translate(15.439 9.217)"><g transform="translate(0 0)"><path class="a" d="M205.853,617.374A1.991,1.991,0,0,1,204,615.269v-9.285a1.868,1.868,0,1,1,3.705,0v9.285A1.991,1.991,0,0,1,205.853,617.374Z" transform="translate(-204 -603.879)"/></g></g><g transform="translate(22.055 9.217)"><g transform="translate(0 0)"><path class="a" d="M241.853,617.374A1.991,1.991,0,0,1,240,615.269v-9.285a1.868,1.868,0,1,1,3.705,0v9.285A1.991,1.991,0,0,1,241.853,617.374Z" transform="translate(-240 -603.879)"/></g></g><g transform="translate(28.672 9.217)"><g transform="translate(0 0)"><path class="a" d="M277.853,617.374A1.991,1.991,0,0,1,276,615.269v-9.285a1.868,1.868,0,1,1,3.705,0v9.285A1.991,1.991,0,0,1,277.853,617.374Z" transform="translate(-276 -603.879)"/></g></g><g transform="translate(15.439 23.821)"><g transform="translate(0)"><path class="a" d="M205.853,678.245A1.991,1.991,0,0,1,204,676.14v-.34a1.868,1.868,0,1,1,3.705,0v.34A1.991,1.991,0,0,1,205.853,678.245Z" transform="translate(-204 -673.695)"/></g></g><g transform="translate(22.055 23.821)"><g transform="translate(0)"><path class="a" d="M241.853,678.245A1.991,1.991,0,0,1,240,676.14v-.34a1.868,1.868,0,1,1,3.705,0v.34A1.991,1.991,0,0,1,241.853,678.245Z" transform="translate(-240 -673.695)"/></g></g><g transform="translate(28.672 23.821)"><g transform="translate(0)"><path class="a" d="M277.853,678.245A1.991,1.991,0,0,1,276,676.14v-.34a1.868,1.868,0,1,1,3.705,0v.34A1.991,1.991,0,0,1,277.853,678.245Z" transform="translate(-276 -673.695)"/></g></g><g transform="translate(35.656 9.189)"><g transform="translate(0 0)"><path class="a" d="M315.853,622.526A1.991,1.991,0,0,1,314,620.421V605.984a1.868,1.868,0,1,1,3.705,0v14.436A1.991,1.991,0,0,1,315.853,622.526Z" transform="translate(-314 -603.879)"/></g></g><g transform="translate(8.822 9.189)"><g transform="translate(0 0)"><path class="a" d="M169.853,622.526A1.991,1.991,0,0,1,168,620.421V605.984a1.868,1.868,0,1,1,3.705,0v14.436A1.991,1.991,0,0,1,169.853,622.526Z" transform="translate(-168 -603.879)"/></g></g><g transform="translate(23.816 7.105)"><path class="b" d="M249.5,593.342" transform="translate(-249.5 -593.342)"/></g><g transform="translate(23.831 0.085)"><path class="b" d="M249.583,560" transform="translate(-249.583 -560)"/></g></svg>