<svg xmlns="http://www.w3.org/2000/svg" width="34.556" height="40.839" viewBox="0 0 34.556 40.839"><defs><style>.a,.b{fill:#0cd7fb;}.b{stroke:#135df5;stroke-linecap:round;stroke-linejoin:round;stroke-width:20px;}</style></defs><g transform="translate(0 0)"><g transform="translate(6.138 7.003)"><path class="a" d="M1400.42,167.724h-18.849a1.571,1.571,0,1,1,0-3.141h18.849a1.571,1.571,0,0,1,0,3.141Z" transform="translate(-1380 -164.583)"/></g><g transform="translate(23.666 18.914)"><path class="a" d="M1494.481,243.559h-1.321a1.571,1.571,0,1,1,0-3.141h1.321a1.571,1.571,0,1,1,0,3.141Z" transform="translate(-1491.589 -240.417)"/></g><g transform="translate(6.138 18.914)"><path class="a" d="M1392.4,243.559h-10.834a1.571,1.571,0,1,1,0-3.141H1392.4a1.571,1.571,0,1,1,0,3.141Z" transform="translate(-1380 -240.417)"/></g><g transform="translate(20.319 13.024)"><path class="a" d="M1476.519,206.058h-4.668a1.571,1.571,0,1,1,0-3.141h4.668a1.571,1.571,0,1,1,0,3.141Z" transform="translate(-1470.28 -202.917)"/></g><g transform="translate(21.889 14.595)"><path class="b" d="M1480.28,212.917" transform="translate(-1480.28 -212.917)"/></g><g transform="translate(15.548 14.595)"><path class="b" d="M1439.907,212.917" transform="translate(-1439.907 -212.917)"/></g><g transform="translate(6.138 13.024)"><path class="a" d="M1389.41,206.058h-7.839a1.571,1.571,0,1,1,0-3.141h7.839a1.571,1.571,0,1,1,0,3.141Z" transform="translate(-1380 -202.917)"/></g><g transform="translate(0)"><path class="a" d="M1370.141,160.839h-23.877a5.346,5.346,0,0,1-5.34-5.34V125.34a5.346,5.346,0,0,1,5.34-5.34h23.877a5.346,5.346,0,0,1,5.34,5.34V155.5A5.346,5.346,0,0,1,1370.141,160.839Zm-23.877-37.7a2.2,2.2,0,0,0-2.2,2.2V155.5a2.2,2.2,0,0,0,2.2,2.2h23.877a2.2,2.2,0,0,0,2.2-2.2V125.34a2.2,2.2,0,0,0-2.2-2.2Z" transform="translate(-1340.924 -120)"/><g transform="translate(12.695 26.901)"><g transform="translate(0 0.849)"><path class="a" d="M1421.745,296.668h2.159c1.246,0,2.294.434,2.294,1.851a1.751,1.751,0,0,1-1.011,1.7l1.309,2.33h-1.571l-1.084-2.068h-.686v2.068h-1.409Zm2.05,2.7c.668,0,1.03-.289,1.03-.849s-.361-.741-1.03-.741h-.641v1.589Z" transform="translate(-1421.745 -296.668)"/></g><g transform="translate(5.238)"><path class="a" d="M1456.689,298.082a2.508,2.508,0,0,1-1.6-.741l.623-.858a1.844,1.844,0,0,0,1.264.488c.488,0,.7-.208.7-.578,0-.84-2.366-.921-2.366-2.5a1.618,1.618,0,0,1,1.373-1.689v-.939h.921v.912a2.275,2.275,0,0,1,1.355.768l-.7.768a1.445,1.445,0,0,0-1-.434c-.388,0-.605.172-.605.542,0,.786,2.366.8,2.366,2.456a1.688,1.688,0,0,1-1.409,1.761v.948h-.921Z" transform="translate(-1455.091 -291.264)"/></g></g></g></g></svg>