<svg xmlns="http://www.w3.org/2000/svg" width="30" height="30" viewBox="0 0 30 30"><defs><style>.a{fill:#c6c6c6;}.b{fill:none;}</style></defs><g transform="translate(-213 -4547)"><g transform="translate(213 4547)"><path class="a" d="M27.778,0H2.212A2.189,2.189,0,0,0,0,2.162V27.837A2.188,2.188,0,0,0,2.212,30H27.778A2.2,2.2,0,0,0,30,27.837V2.162A2.2,2.2,0,0,0,27.778,0ZM8.9,25.565H4.445V11.248H8.9ZM6.673,9.29a2.579,2.579,0,1,1,2.58-2.58A2.578,2.578,0,0,1,6.673,9.29ZM25.562,25.565H21.117V18.6c0-1.662-.033-3.8-2.313-3.8-2.315,0-2.668,1.808-2.668,3.675v7.083H11.69V11.248h4.265V13.2h.06a4.68,4.68,0,0,1,4.212-2.312c4.5,0,5.335,2.965,5.335,6.822Z"/></g><rect class="b" width="30" height="30" transform="translate(213 4547)"/></g></svg>