<svg xmlns="http://www.w3.org/2000/svg" width="114.666" height="40.224" viewBox="0 0 114.666 40.224"><defs><style>.a{fill:#fff;}</style></defs><g transform="translate(-3541.225 -13776.978)"><g transform="translate(3541.225 13777.821)"><path class="a" d="M3579.48,13793.055c-.858-1.764-1.569-3.59-2.835-4.758a6.482,6.482,0,0,0-5.169-1.5,12,12,0,0,0-5.189,1.686c-.878.51-3.042,1.52-3.192,3.607s-.129,2.016-.238,4.408c-.029.615.044,1.141-.679,1.24-.565.076-.717-.242-.781-.863a5.2,5.2,0,0,1,.069-1.736.656.656,0,0,0-.494-.752,1.2,1.2,0,0,0-1,.676c-.238.412-.787,2.5-2.1,5.227-.195.4-.547.666-.993.459a.867.867,0,0,1-.424-.912c.058-.088.954-2.145,2.006-4.463.128-.285.188-.332.081-.4-.241-.16-.33.027-.634.434s-2.9,4-3.036,4.16a.823.823,0,0,1-.919.139.62.62,0,0,1-.062-.832c.156-.2,2.523-4.189,2.654-4.355s.541-.555.353-.711-.363.057-.618.313-2.782,2.51-2.971,2.7-.545.588-.74.391a.98.98,0,0,1-.018-.973c.15-.174,3.011-3.371,3.124-3.484a.677.677,0,0,0,.057-.734.512.512,0,0,0-.7-.025c-.177.162-1.979,1.611-2.176,1.783s-.61.531-.8.275a.7.7,0,0,1,.138-.881c.243-.221,3.975-4.453,5.193-5.422a43.612,43.612,0,0,1,4.567-3.168,25.43,25.43,0,0,1,5.257-2.221,18.133,18.133,0,0,0-5.754-.584,20.24,20.24,0,0,0-4.855.887,21.568,21.568,0,0,0-4.585,1.945,15,15,0,0,0-3.751,2.908,13.347,13.347,0,0,0-2.6,4.363,10.278,10.278,0,0,0-.746,4.605,11.515,11.515,0,0,0,1.415,4.512,12.908,12.908,0,0,0,3.194,3.49c.729.707,2.285,2.385,4.309,1.834s2.329-.562,4.624-1.248c.59-.176.911-.4,1.253.25s-1.075,1.094-2.428,1.66c-.317.135-.241.3-.179.623s.167.512.633.6,3,.4,6.007.742c.444.053.724.041.675.529s-.764.648-.864.621a42.912,42.912,0,0,0-5.028-.785c-.309-.025-.414.18-.454.465s.139.332.623.486,4.694,1.516,4.891,1.59.6.375.5.7a.912.912,0,0,1-.861.555l-4.979-1.709c-.2-.07-.721.051-.806.281a.8.8,0,0,0,.439.828c.327.158,3.6,1.139,3.842,1.254s.264.518.145.766-.262.309-.476.225-4.4-1.266-4.548-1.332-.4-.2-.532.029a.419.419,0,0,0,.129.6c.213.115,2.33,1.064,2.556,1.2a.652.652,0,0,1,.2.834c-.179.258-.461.5-.75.338s-5.3-2.631-6.618-3.461a28.016,28.016,0,0,1-4.367-2.762,24.319,24.319,0,0,1-3.738-3.59,17.051,17.051,0,0,1-2.5-4.484,20.79,20.79,0,0,0,.956,5.693,21.593,21.593,0,0,0,2.326,5.33,18.545,18.545,0,0,0,3.761,4.469,16.352,16.352,0,0,0,5.214,2.557,17.31,17.31,0,0,0,5.679.951,7.981,7.981,0,0,0,4.579-1.422,12.516,12.516,0,0,0,3.582-3.361,14.934,14.934,0,0,0,1.856-4.576c.32-.963,1.172-3.117-.2-4.7s-.907-1.156-2.521-2.922c-.416-.457-1.067-1.092-.636-1.68s.946-.463,1.4-.025c.253.248.611.641.833.881s.591.744.854.551a1.139,1.139,0,0,0,.178-1.148c-.122-.461-1.208-2.8-2.2-5.654-.147-.422-.143-.723.319-.893s.657.465.676.566,1.176,2.309,2.072,4.693c.11.289.135.338.41.25s.338-.221.267-.723-.928-4.85-.946-5.059.1-.711.443-.762a.837.837,0,0,1,.815.547c.029.25.682,5.008.708,5.215s.334.643.579.619.44-.4.439-.768-.06-3.738-.06-4.008-.011-.713.264-.719c.667-.016.662.494.679.727s.359,4.082.36,4.244.129.9.391.922.27-.309.281-.551.214-2.545.232-2.807a.558.558,0,0,1,.609-.494c.312.051.6.148.581.477s-.051,5.916-.228,7.461a27.828,27.828,0,0,1-.516,4.766,24.905,24.905,0,0,1-1.307,4.633,17.432,17.432,0,0,1-2.506,3.936,19,19,0,0,0,4.044-3.248,17.828,17.828,0,0,0,5.609-18.809A19.768,19.768,0,0,0,3579.48,13793.055Z" transform="translate(-3541.226 -13781.755)"/></g><g transform="translate(3541.225 13776.978)"><g transform="translate(45.632)"><g transform="translate(1.675)"><path class="a" d="M3819.362,13807c0,.242.027.484.027.727a1.561,1.561,0,0,1-.134.7,2.18,2.18,0,0,1-.3.484,2.05,2.05,0,0,1-1.264.619h-.108a1.226,1.226,0,0,1-1.076-.7c-.108-.135-.189-.592-.43-.592h-.027c-.27,0-.484.43-.7.537a3.215,3.215,0,0,1-1.237.432,5.577,5.577,0,0,1-.942.135h-.107a4.015,4.015,0,0,1-3.578-3.041,3.229,3.229,0,0,1-.162-.889v-.107c.243-2.637,2.825-3.439,5.085-3.656.08,0,.188-.029.269-.029.269,0,.538.055.834.082h.027c.43,0,.511-.619.511-1.156a3.5,3.5,0,0,0-.028-.592,1.17,1.17,0,0,0-1.291-1.023,2.34,2.34,0,0,0-.458.055,12.381,12.381,0,0,0-1.425.295c-.377.162-.673.619-1.1.674h-.107c-.7,0-1.156-.781-1.345-1.4a2.723,2.723,0,0,1-.054-.459v-.16a1.891,1.891,0,0,1,1.211-1.453c.242-.107.592-.27.86-.377a4.527,4.527,0,0,1,1.238-.242c.269-.027.538-.055.78-.055a3.521,3.521,0,0,1,1.049.135,4.42,4.42,0,0,1,1.614.619,3.287,3.287,0,0,1,1.856,2.287,9.9,9.9,0,0,1,.511,3.445c0,.8-.054,1.637-.054,2.42,0,.564.081,1.076.081,1.613a2.931,2.931,0,0,1-.027.484Zm-3.417-2.582c0-.27,0-.564-.108-.564-.134,0-.322-.027-.511-.027a4.621,4.621,0,0,0-.941.08,2.822,2.822,0,0,0-1.533.646.825.825,0,0,0-.161.512c0,.727.645,1.721,1.075,1.721h.054a6.564,6.564,0,0,0,1.722-.887c.188-.082.4-.754.4-1.023Z" transform="translate(-3809.327 -13792.483)"/><path class="a" d="M3881.451,13802.8a4.888,4.888,0,0,1,2.4.854,1.358,1.358,0,0,1,.824,1.182,1.382,1.382,0,0,1-1.329,1.225h-.027c-.027,0-.081,0-.107,0-.673-.021-1.358-.5-2.11-.523a1.312,1.312,0,0,0-.459.039,4.859,4.859,0,0,0-1.5.6c-.989.67-.892,1.023-1.276,2.113a2.785,2.785,0,0,0-.165.994,7.79,7.79,0,0,0,.069,1.238,2.884,2.884,0,0,0,.931,2.1,3.744,3.744,0,0,0,1.839.594,1.353,1.353,0,0,0,.35-.014c.623-.143.545-.227,1.147-.557a1.263,1.263,0,0,1,.487-.092,1.366,1.366,0,0,1,1.14.572,1.855,1.855,0,0,1,.093.463,1.322,1.322,0,0,1,.067.43c0,.027,0,.082,0,.107a1.757,1.757,0,0,1-.6,1.029,4.375,4.375,0,0,1-3.13,1.143l-.215-.006a4.815,4.815,0,0,1-.8-.105,5.524,5.524,0,0,1-1.574-.453,5.7,5.7,0,0,1-.9-.512,8.482,8.482,0,0,1-1.278-1.3,5.208,5.208,0,0,1-1.156-3.533c.007-.217-.008-.621,0-1.025a8.6,8.6,0,0,1,.121-1.314,7.836,7.836,0,0,1,.4-1.465,6.139,6.139,0,0,1,4.474-3.686,10.436,10.436,0,0,1,2.022-.1C3881.262,13802.793,3881.37,13802.795,3881.451,13802.8Z" transform="translate(-3862.721 -13798.234)"/><path class="a" d="M3935.247,13812.658a13.941,13.941,0,0,1-.189-2.205,7.369,7.369,0,0,1,1.479-4.9,4.644,4.644,0,0,1,.673-.564,6.333,6.333,0,0,1,1.506-.836,4.713,4.713,0,0,1,1.507-.189c.269,0,.511-.025.78-.025a2.156,2.156,0,0,1,.4.025,6.927,6.927,0,0,1,1.937.646,5.781,5.781,0,0,1,2.18,2.367,8.315,8.315,0,0,1,.753,2.262,9.935,9.935,0,0,1,.215,1.533c0,.539-.081,1.613-.107,2.152a3.32,3.32,0,0,1-.323,1,5.276,5.276,0,0,1-.915,1.666,2.73,2.73,0,0,1-.538.457c-.484.244-1.211.834-1.723,1.021a4.259,4.259,0,0,1-1.56.27,12.141,12.141,0,0,1-2.421-.322C3936.86,13816.613,3935.542,13814.6,3935.247,13812.658Zm5.7,1.588a2.844,2.844,0,0,0,1.318-.322c.3-.135.592-.861.673-1.186a2.951,2.951,0,0,0,.08-.887c0-.727-.107-1.588-.135-1.939-.187-1.586-.564-2.527-2.394-2.82a.689.689,0,0,0-.242-.029,1.914,1.914,0,0,0-1.587,1.291,5.809,5.809,0,0,0-.376,2.207,5.455,5.455,0,0,0,.43,2.313,1.9,1.9,0,0,0,1.48,1.291A3.722,3.722,0,0,0,3940.949,13814.246Z" transform="translate(-3912.872 -13799.183)"/><path class="a" d="M4009.834,13802.482a2.155,2.155,0,0,1,1.64.674c.108.16.216.994.431.994h.027a3.333,3.333,0,0,0,.887-.4c.27-.162.565-.324.834-.484a2.335,2.335,0,0,1,1.05-.271,1.426,1.426,0,0,1,1.345,1.508,1.985,1.985,0,0,1-.082.537c-.242.807-1.075.914-1.721,1.211a3.044,3.044,0,0,0-1.534.889c-.215.242-.215,1-.323,1.344a2.388,2.388,0,0,0-.053.459c0,.35.053.725.081,1.047,0,.621-.028,1.078-.028,1.643v.428c0,.406.108.811.108,1.24v.135c-.027.27-.081.619-.135.887-.081.3-.053.594-.107.887a1.542,1.542,0,0,1-1.049.943,1.393,1.393,0,0,1-.457.08,1.644,1.644,0,0,1-1.533-1.506c-.054-.537-.189-1.051-.216-1.586-.026-.352-.026-.7-.026-1.023,0-.646.026-1.266.026-1.965v-.43c-.053-1.156-.162-2.34-.162-3.5,0-.484-.3-1.508-.3-1.99v-.377a1.165,1.165,0,0,1,.7-1.266A1.379,1.379,0,0,1,4009.834,13802.482Z" transform="translate(-3973.389 -13797.981)"/><path class="a" d="M4057.55,13776.979a2.512,2.512,0,0,1,.7.082,3.206,3.206,0,0,1,.969.455,1.225,1.225,0,0,1,.188.672,8.414,8.414,0,0,1-.081.861,1.146,1.146,0,0,0-.026.3c0,.215.026.432.026.619v.455c0,1.078-.215,2.854-.215,3.742,0,.295.027.564.027.832s-.027.539-.027.809c-.026.7-.161,1.426-.161,2.152-.081,1.426-.108,2.611-.108,4.035v.27c0,.51-.054,1.021-.054,1.533,0,.242.028.512.028.8a2.437,2.437,0,0,1-.108.809c-.188.512-.511,1.076-1.021,1.129a4.585,4.585,0,0,1-.646.029c-.592,0-1.183-.109-1.21-.512a.786.786,0,0,0-.7-.779,1.167,1.167,0,0,0-.565.215,2.549,2.549,0,0,1-.969.27,5.305,5.305,0,0,1-1.237.133h-.215a4.175,4.175,0,0,1-2.1-.914,4.733,4.733,0,0,1-1.049-1.131,6.593,6.593,0,0,1-.619-1.4,6.756,6.756,0,0,1-.3-1.268,2.19,2.19,0,0,1-.054-.484,5.446,5.446,0,0,1,.054-.809,9.073,9.073,0,0,1,.511-2.93,9.8,9.8,0,0,1,1.183-1.965,4.234,4.234,0,0,1,.62-.725,6.981,6.981,0,0,1,.941-.619,4.145,4.145,0,0,1,2.045-.457c.269,0,.538-.029.779-.029s.485.029.781.029c.107,0,.242.027.349.027a.459.459,0,0,0,.4-.164,2.291,2.291,0,0,0,.216-1.129c.054-.512.107-1.83.162-2.34v-.7c0-.8.081-1.668,1.1-1.885A1.745,1.745,0,0,1,4057.55,13776.979Zm-5.515,9.9a4.506,4.506,0,0,0-.781,1.617,7.452,7.452,0,0,0-.187,1.451,4.341,4.341,0,0,0,.188,1.236,1.888,1.888,0,0,0,1.049,1.373,2.714,2.714,0,0,0,.942.242h.108c.7-.082,1.318.082,1.829-.373.242-.191.3-.705.322-.891,0-.352.028-.676.028-1v-.51a10.7,10.7,0,0,1,.134-1.344v-.971a3.959,3.959,0,0,1,.027-.562v-.08a1.052,1.052,0,0,0-1.21-1.186,2,2,0,0,0-.4.027A2.878,2.878,0,0,0,4052.035,13786.877Z" transform="translate(-4005.908 -13776.979)"/><path class="a" d="M4120.784,13812.408a14.107,14.107,0,0,1-.188-2.207,7.372,7.372,0,0,1,1.479-4.9,4.473,4.473,0,0,1,.673-.564,6.247,6.247,0,0,1,1.506-.836,4.763,4.763,0,0,1,1.506-.189c.271,0,.512-.027.78-.027a2.007,2.007,0,0,1,.4.027,6.935,6.935,0,0,1,1.937.646,5.778,5.778,0,0,1,2.179,2.369,8.2,8.2,0,0,1,.753,2.26,10.036,10.036,0,0,1,.214,1.531c0,.539-.08,1.615-.107,2.15a3.3,3.3,0,0,1-.323,1,5.227,5.227,0,0,1-.916,1.668,2.786,2.786,0,0,1-.537.457c-.485.242-1.211.834-1.723,1.023a4.341,4.341,0,0,1-1.56.268,12.134,12.134,0,0,1-2.421-.324C4122.4,13816.361,4121.08,13814.342,4120.784,13812.408Zm5.7,1.586a2.9,2.9,0,0,0,1.318-.324c.3-.133.592-.861.673-1.184a2.98,2.98,0,0,0,.079-.887c0-.727-.107-1.588-.134-1.937-.187-1.588-.563-2.529-2.393-2.826a.744.744,0,0,0-.244-.027,1.914,1.914,0,0,0-1.586,1.293,5.765,5.765,0,0,0-.378,2.2,5.452,5.452,0,0,0,.431,2.316,1.908,1.908,0,0,0,1.48,1.293A3.858,3.858,0,0,0,4126.488,13813.994Z" transform="translate(-4065.673 -13798.975)"/><path class="a" d="M3819.362,13807c0,.242.027.484.027.727a1.561,1.561,0,0,1-.134.7,2.18,2.18,0,0,1-.3.484,2.05,2.05,0,0,1-1.264.619h-.108a1.226,1.226,0,0,1-1.076-.7c-.108-.135-.189-.592-.43-.592h-.027c-.27,0-.484.43-.7.537a3.215,3.215,0,0,1-1.237.432,5.577,5.577,0,0,1-.942.135h-.107a4.015,4.015,0,0,1-3.578-3.041,3.229,3.229,0,0,1-.162-.889v-.107c.243-2.637,2.825-3.439,5.085-3.656.08,0,.188-.029.269-.029.269,0,.538.055.834.082h.027c.43,0,.511-.619.511-1.156a3.5,3.5,0,0,0-.028-.592,1.17,1.17,0,0,0-1.291-1.023,2.34,2.34,0,0,0-.458.055,12.381,12.381,0,0,0-1.425.295c-.377.162-.673.619-1.1.674h-.107c-.7,0-1.156-.781-1.345-1.4a2.723,2.723,0,0,1-.054-.459v-.16a1.891,1.891,0,0,1,1.211-1.453c.242-.107.592-.27.86-.377a4.527,4.527,0,0,1,1.238-.242c.269-.027.538-.055.78-.055a3.521,3.521,0,0,1,1.049.135,4.42,4.42,0,0,1,1.614.619,3.287,3.287,0,0,1,1.856,2.287,9.9,9.9,0,0,1,.511,3.445c0,.8-.054,1.637-.054,2.42,0,.564.081,1.076.081,1.613a2.931,2.931,0,0,1-.027.484Zm-3.417-2.582c0-.27,0-.564-.108-.564-.134,0-.322-.027-.511-.027a4.621,4.621,0,0,0-.941.08,2.822,2.822,0,0,0-1.533.646.825.825,0,0,0-.161.512c0,.727.645,1.721,1.075,1.721h.054a6.564,6.564,0,0,0,1.722-.887c.188-.082.4-.754.4-1.023Z" transform="translate(-3809.327 -13792.483)"/><path class="a" d="M3881.451,13802.8a4.888,4.888,0,0,1,2.4.854,1.358,1.358,0,0,1,.824,1.182,1.382,1.382,0,0,1-1.329,1.225h-.027c-.027,0-.081,0-.107,0-.673-.021-1.358-.5-2.11-.523a1.312,1.312,0,0,0-.459.039,4.859,4.859,0,0,0-1.5.6c-.989.67-.892,1.023-1.276,2.113a2.785,2.785,0,0,0-.165.994,7.79,7.79,0,0,0,.069,1.238,2.884,2.884,0,0,0,.931,2.1,3.744,3.744,0,0,0,1.839.594,1.353,1.353,0,0,0,.35-.014c.623-.143.545-.227,1.147-.557a1.263,1.263,0,0,1,.487-.092,1.366,1.366,0,0,1,1.14.572,1.855,1.855,0,0,1,.093.463,1.322,1.322,0,0,1,.067.43c0,.027,0,.082,0,.107a1.757,1.757,0,0,1-.6,1.029,4.375,4.375,0,0,1-3.13,1.143l-.215-.006a4.815,4.815,0,0,1-.8-.105,5.524,5.524,0,0,1-1.574-.453,5.7,5.7,0,0,1-.9-.512,8.482,8.482,0,0,1-1.278-1.3,5.208,5.208,0,0,1-1.156-3.533c.007-.217-.008-.621,0-1.025a8.6,8.6,0,0,1,.121-1.314,7.836,7.836,0,0,1,.4-1.465,6.139,6.139,0,0,1,4.474-3.686,10.436,10.436,0,0,1,2.022-.1C3881.262,13802.793,3881.37,13802.795,3881.451,13802.8Z" transform="translate(-3862.721 -13798.234)"/><path class="a" d="M3935.247,13812.658a13.941,13.941,0,0,1-.189-2.205,7.369,7.369,0,0,1,1.479-4.9,4.644,4.644,0,0,1,.673-.564,6.333,6.333,0,0,1,1.506-.836,4.713,4.713,0,0,1,1.507-.189c.269,0,.511-.025.78-.025a2.156,2.156,0,0,1,.4.025,6.927,6.927,0,0,1,1.937.646,5.781,5.781,0,0,1,2.18,2.367,8.315,8.315,0,0,1,.753,2.262,9.935,9.935,0,0,1,.215,1.533c0,.539-.081,1.613-.107,2.152a3.32,3.32,0,0,1-.323,1,5.276,5.276,0,0,1-.915,1.666,2.73,2.73,0,0,1-.538.457c-.484.244-1.211.834-1.723,1.021a4.259,4.259,0,0,1-1.56.27,12.141,12.141,0,0,1-2.421-.322C3936.86,13816.613,3935.542,13814.6,3935.247,13812.658Zm5.7,1.588a2.844,2.844,0,0,0,1.318-.322c.3-.135.592-.861.673-1.186a2.951,2.951,0,0,0,.08-.887c0-.727-.107-1.588-.135-1.939-.187-1.586-.564-2.527-2.394-2.82a.689.689,0,0,0-.242-.029,1.914,1.914,0,0,0-1.587,1.291,5.809,5.809,0,0,0-.376,2.207,5.455,5.455,0,0,0,.43,2.313,1.9,1.9,0,0,0,1.48,1.291A3.722,3.722,0,0,0,3940.949,13814.246Z" transform="translate(-3912.872 -13799.183)"/><path class="a" d="M4009.834,13802.482a2.155,2.155,0,0,1,1.64.674c.108.16.216.994.431.994h.027a3.333,3.333,0,0,0,.887-.4c.27-.162.565-.324.834-.484a2.335,2.335,0,0,1,1.05-.271,1.426,1.426,0,0,1,1.345,1.508,1.985,1.985,0,0,1-.082.537c-.242.807-1.075.914-1.721,1.211a3.044,3.044,0,0,0-1.534.889c-.215.242-.215,1-.323,1.344a2.388,2.388,0,0,0-.053.459c0,.35.053.725.081,1.047,0,.621-.028,1.078-.028,1.643v.428c0,.406.108.811.108,1.24v.135c-.027.27-.081.619-.135.887-.081.3-.053.594-.107.887a1.542,1.542,0,0,1-1.049.943,1.393,1.393,0,0,1-.457.08,1.644,1.644,0,0,1-1.533-1.506c-.054-.537-.189-1.051-.216-1.586-.026-.352-.026-.7-.026-1.023,0-.646.026-1.266.026-1.965v-.43c-.053-1.156-.162-2.34-.162-3.5,0-.484-.3-1.508-.3-1.99v-.377a1.165,1.165,0,0,1,.7-1.266A1.379,1.379,0,0,1,4009.834,13802.482Z" transform="translate(-3973.389 -13797.981)"/><path class="a" d="M4057.55,13776.979a2.512,2.512,0,0,1,.7.082,3.206,3.206,0,0,1,.969.455,1.225,1.225,0,0,1,.188.672,8.414,8.414,0,0,1-.081.861,1.146,1.146,0,0,0-.026.3c0,.215.026.432.026.619v.455c0,1.078-.215,2.854-.215,3.742,0,.295.027.564.027.832s-.027.539-.027.809c-.026.7-.161,1.426-.161,2.152-.081,1.426-.108,2.611-.108,4.035v.27c0,.51-.054,1.021-.054,1.533,0,.242.028.512.028.8a2.437,2.437,0,0,1-.108.809c-.188.512-.511,1.076-1.021,1.129a4.585,4.585,0,0,1-.646.029c-.592,0-1.183-.109-1.21-.512a.786.786,0,0,0-.7-.779,1.167,1.167,0,0,0-.565.215,2.549,2.549,0,0,1-.969.27,5.305,5.305,0,0,1-1.237.133h-.215a4.175,4.175,0,0,1-2.1-.914,4.733,4.733,0,0,1-1.049-1.131,6.593,6.593,0,0,1-.619-1.4,6.756,6.756,0,0,1-.3-1.268,2.19,2.19,0,0,1-.054-.484,5.446,5.446,0,0,1,.054-.809,9.073,9.073,0,0,1,.511-2.93,9.8,9.8,0,0,1,1.183-1.965,4.234,4.234,0,0,1,.62-.725,6.981,6.981,0,0,1,.941-.619,4.145,4.145,0,0,1,2.045-.457c.269,0,.538-.029.779-.029s.485.029.781.029c.107,0,.242.027.349.027a.459.459,0,0,0,.4-.164,2.291,2.291,0,0,0,.216-1.129c.054-.512.107-1.83.162-2.34v-.7c0-.8.081-1.668,1.1-1.885A1.745,1.745,0,0,1,4057.55,13776.979Zm-5.515,9.9a4.506,4.506,0,0,0-.781,1.617,7.452,7.452,0,0,0-.187,1.451,4.341,4.341,0,0,0,.188,1.236,1.888,1.888,0,0,0,1.049,1.373,2.714,2.714,0,0,0,.942.242h.108c.7-.082,1.318.082,1.829-.373.242-.191.3-.705.322-.891,0-.352.028-.676.028-1v-.51a10.7,10.7,0,0,1,.134-1.344v-.971a3.959,3.959,0,0,1,.027-.562v-.08a1.052,1.052,0,0,0-1.21-1.186,2,2,0,0,0-.4.027A2.878,2.878,0,0,0,4052.035,13786.877Z" transform="translate(-4005.908 -13776.979)"/><path class="a" d="M4120.784,13812.408a14.107,14.107,0,0,1-.188-2.207,7.372,7.372,0,0,1,1.479-4.9,4.473,4.473,0,0,1,.673-.564,6.247,6.247,0,0,1,1.506-.836,4.763,4.763,0,0,1,1.506-.189c.271,0,.512-.027.78-.027a2.007,2.007,0,0,1,.4.027,6.935,6.935,0,0,1,1.937.646,5.778,5.778,0,0,1,2.179,2.369,8.2,8.2,0,0,1,.753,2.26,10.036,10.036,0,0,1,.214,1.531c0,.539-.08,1.615-.107,2.15a3.3,3.3,0,0,1-.323,1,5.227,5.227,0,0,1-.916,1.668,2.786,2.786,0,0,1-.537.457c-.485.242-1.211.834-1.723,1.023a4.341,4.341,0,0,1-1.56.268,12.134,12.134,0,0,1-2.421-.324C4122.4,13816.361,4121.08,13814.342,4120.784,13812.408Zm5.7,1.586a2.9,2.9,0,0,0,1.318-.324c.3-.133.592-.861.673-1.184a2.98,2.98,0,0,0,.079-.887c0-.727-.107-1.588-.134-1.937-.187-1.588-.563-2.529-2.393-2.826a.744.744,0,0,0-.244-.027,1.914,1.914,0,0,0-1.586,1.293,5.765,5.765,0,0,0-.378,2.2,5.452,5.452,0,0,0,.431,2.316,1.908,1.908,0,0,0,1.48,1.293A3.858,3.858,0,0,0,4126.488,13813.994Z" transform="translate(-4065.673 -13798.975)"/><path class="a" d="M3819.362,13807c0,.242.027.484.027.727a1.561,1.561,0,0,1-.134.7,2.18,2.18,0,0,1-.3.484,2.05,2.05,0,0,1-1.264.619h-.108a1.226,1.226,0,0,1-1.076-.7c-.108-.135-.189-.592-.43-.592h-.027c-.27,0-.484.43-.7.537a3.215,3.215,0,0,1-1.237.432,5.577,5.577,0,0,1-.942.135h-.107a4.015,4.015,0,0,1-3.578-3.041,3.229,3.229,0,0,1-.162-.889v-.107c.243-2.637,2.825-3.439,5.085-3.656.08,0,.188-.029.269-.029.269,0,.538.055.834.082h.027c.43,0,.511-.619.511-1.156a3.5,3.5,0,0,0-.028-.592,1.17,1.17,0,0,0-1.291-1.023,2.34,2.34,0,0,0-.458.055,12.381,12.381,0,0,0-1.425.295c-.377.162-.673.619-1.1.674h-.107c-.7,0-1.156-.781-1.345-1.4a2.723,2.723,0,0,1-.054-.459v-.16a1.891,1.891,0,0,1,1.211-1.453c.242-.107.592-.27.86-.377a4.527,4.527,0,0,1,1.238-.242c.269-.027.538-.055.78-.055a3.521,3.521,0,0,1,1.049.135,4.42,4.42,0,0,1,1.614.619,3.287,3.287,0,0,1,1.856,2.287,9.9,9.9,0,0,1,.511,3.445c0,.8-.054,1.637-.054,2.42,0,.564.081,1.076.081,1.613a2.931,2.931,0,0,1-.027.484Zm-3.417-2.582c0-.27,0-.564-.108-.564-.134,0-.322-.027-.511-.027a4.621,4.621,0,0,0-.941.08,2.822,2.822,0,0,0-1.533.646.825.825,0,0,0-.161.512c0,.727.645,1.721,1.075,1.721h.054a6.564,6.564,0,0,0,1.722-.887c.188-.082.4-.754.4-1.023Z" transform="translate(-3809.327 -13792.483)"/><path class="a" d="M3881.451,13802.8a4.888,4.888,0,0,1,2.4.854,1.358,1.358,0,0,1,.824,1.182,1.382,1.382,0,0,1-1.329,1.225h-.027c-.027,0-.081,0-.107,0-.673-.021-1.358-.5-2.11-.523a1.312,1.312,0,0,0-.459.039,4.859,4.859,0,0,0-1.5.6c-.989.67-.892,1.023-1.276,2.113a2.785,2.785,0,0,0-.165.994,7.79,7.79,0,0,0,.069,1.238,2.884,2.884,0,0,0,.931,2.1,3.744,3.744,0,0,0,1.839.594,1.353,1.353,0,0,0,.35-.014c.623-.143.545-.227,1.147-.557a1.263,1.263,0,0,1,.487-.092,1.366,1.366,0,0,1,1.14.572,1.855,1.855,0,0,1,.093.463,1.322,1.322,0,0,1,.067.43c0,.027,0,.082,0,.107a1.757,1.757,0,0,1-.6,1.029,4.375,4.375,0,0,1-3.13,1.143l-.215-.006a4.815,4.815,0,0,1-.8-.105,5.524,5.524,0,0,1-1.574-.453,5.7,5.7,0,0,1-.9-.512,8.482,8.482,0,0,1-1.278-1.3,5.208,5.208,0,0,1-1.156-3.533c.007-.217-.008-.621,0-1.025a8.6,8.6,0,0,1,.121-1.314,7.836,7.836,0,0,1,.4-1.465,6.139,6.139,0,0,1,4.474-3.686,10.436,10.436,0,0,1,2.022-.1C3881.262,13802.793,3881.37,13802.795,3881.451,13802.8Z" transform="translate(-3862.721 -13798.234)"/><path class="a" d="M3935.247,13812.658a13.941,13.941,0,0,1-.189-2.205,7.369,7.369,0,0,1,1.479-4.9,4.644,4.644,0,0,1,.673-.564,6.333,6.333,0,0,1,1.506-.836,4.713,4.713,0,0,1,1.507-.189c.269,0,.511-.025.78-.025a2.156,2.156,0,0,1,.4.025,6.927,6.927,0,0,1,1.937.646,5.781,5.781,0,0,1,2.18,2.367,8.315,8.315,0,0,1,.753,2.262,9.935,9.935,0,0,1,.215,1.533c0,.539-.081,1.613-.107,2.152a3.32,3.32,0,0,1-.323,1,5.276,5.276,0,0,1-.915,1.666,2.73,2.73,0,0,1-.538.457c-.484.244-1.211.834-1.723,1.021a4.259,4.259,0,0,1-1.56.27,12.141,12.141,0,0,1-2.421-.322C3936.86,13816.613,3935.542,13814.6,3935.247,13812.658Zm5.7,1.588a2.844,2.844,0,0,0,1.318-.322c.3-.135.592-.861.673-1.186a2.951,2.951,0,0,0,.08-.887c0-.727-.107-1.588-.135-1.939-.187-1.586-.564-2.527-2.394-2.82a.689.689,0,0,0-.242-.029,1.914,1.914,0,0,0-1.587,1.291,5.809,5.809,0,0,0-.376,2.207,5.455,5.455,0,0,0,.43,2.313,1.9,1.9,0,0,0,1.48,1.291A3.722,3.722,0,0,0,3940.949,13814.246Z" transform="translate(-3912.872 -13799.183)"/><path class="a" d="M4009.834,13802.482a2.155,2.155,0,0,1,1.64.674c.108.16.216.994.431.994h.027a3.333,3.333,0,0,0,.887-.4c.27-.162.565-.324.834-.484a2.335,2.335,0,0,1,1.05-.271,1.426,1.426,0,0,1,1.345,1.508,1.985,1.985,0,0,1-.082.537c-.242.807-1.075.914-1.721,1.211a3.044,3.044,0,0,0-1.534.889c-.215.242-.215,1-.323,1.344a2.388,2.388,0,0,0-.053.459c0,.35.053.725.081,1.047,0,.621-.028,1.078-.028,1.643v.428c0,.406.108.811.108,1.24v.135c-.027.27-.081.619-.135.887-.081.3-.053.594-.107.887a1.542,1.542,0,0,1-1.049.943,1.393,1.393,0,0,1-.457.08,1.644,1.644,0,0,1-1.533-1.506c-.054-.537-.189-1.051-.216-1.586-.026-.352-.026-.7-.026-1.023,0-.646.026-1.266.026-1.965v-.43c-.053-1.156-.162-2.34-.162-3.5,0-.484-.3-1.508-.3-1.99v-.377a1.165,1.165,0,0,1,.7-1.266A1.379,1.379,0,0,1,4009.834,13802.482Z" transform="translate(-3973.389 -13797.981)"/><path class="a" d="M4057.55,13776.979a2.512,2.512,0,0,1,.7.082,3.206,3.206,0,0,1,.969.455,1.225,1.225,0,0,1,.188.672,8.414,8.414,0,0,1-.081.861,1.146,1.146,0,0,0-.026.3c0,.215.026.432.026.619v.455c0,1.078-.215,2.854-.215,3.742,0,.295.027.564.027.832s-.027.539-.027.809c-.026.7-.161,1.426-.161,2.152-.081,1.426-.108,2.611-.108,4.035v.27c0,.51-.054,1.021-.054,1.533,0,.242.028.512.028.8a2.437,2.437,0,0,1-.108.809c-.188.512-.511,1.076-1.021,1.129a4.585,4.585,0,0,1-.646.029c-.592,0-1.183-.109-1.21-.512a.786.786,0,0,0-.7-.779,1.167,1.167,0,0,0-.565.215,2.549,2.549,0,0,1-.969.27,5.305,5.305,0,0,1-1.237.133h-.215a4.175,4.175,0,0,1-2.1-.914,4.733,4.733,0,0,1-1.049-1.131,6.593,6.593,0,0,1-.619-1.4,6.756,6.756,0,0,1-.3-1.268,2.19,2.19,0,0,1-.054-.484,5.446,5.446,0,0,1,.054-.809,9.073,9.073,0,0,1,.511-2.93,9.8,9.8,0,0,1,1.183-1.965,4.234,4.234,0,0,1,.62-.725,6.981,6.981,0,0,1,.941-.619,4.145,4.145,0,0,1,2.045-.457c.269,0,.538-.029.779-.029s.485.029.781.029c.107,0,.242.027.349.027a.459.459,0,0,0,.4-.164,2.291,2.291,0,0,0,.216-1.129c.054-.512.107-1.83.162-2.34v-.7c0-.8.081-1.668,1.1-1.885A1.745,1.745,0,0,1,4057.55,13776.979Zm-5.515,9.9a4.506,4.506,0,0,0-.781,1.617,7.452,7.452,0,0,0-.187,1.451,4.341,4.341,0,0,0,.188,1.236,1.888,1.888,0,0,0,1.049,1.373,2.714,2.714,0,0,0,.942.242h.108c.7-.082,1.318.082,1.829-.373.242-.191.3-.705.322-.891,0-.352.028-.676.028-1v-.51a10.7,10.7,0,0,1,.134-1.344v-.971a3.959,3.959,0,0,1,.027-.562v-.08a1.052,1.052,0,0,0-1.21-1.186,2,2,0,0,0-.4.027A2.878,2.878,0,0,0,4052.035,13786.877Z" transform="translate(-4005.908 -13776.979)"/><path class="a" d="M4120.784,13812.408a14.107,14.107,0,0,1-.188-2.207,7.372,7.372,0,0,1,1.479-4.9,4.473,4.473,0,0,1,.673-.564,6.247,6.247,0,0,1,1.506-.836,4.763,4.763,0,0,1,1.506-.189c.271,0,.512-.027.78-.027a2.007,2.007,0,0,1,.4.027,6.935,6.935,0,0,1,1.937.646,5.778,5.778,0,0,1,2.179,2.369,8.2,8.2,0,0,1,.753,2.26,10.036,10.036,0,0,1,.214,1.531c0,.539-.08,1.615-.107,2.15a3.3,3.3,0,0,1-.323,1,5.227,5.227,0,0,1-.916,1.668,2.786,2.786,0,0,1-.537.457c-.485.242-1.211.834-1.723,1.023a4.341,4.341,0,0,1-1.56.268,12.134,12.134,0,0,1-2.421-.324C4122.4,13816.361,4121.08,13814.342,4120.784,13812.408Zm5.7,1.586a2.9,2.9,0,0,0,1.318-.324c.3-.133.592-.861.673-1.184a2.98,2.98,0,0,0,.079-.887c0-.727-.107-1.588-.134-1.937-.187-1.588-.563-2.529-2.393-2.826a.744.744,0,0,0-.244-.027,1.914,1.914,0,0,0-1.586,1.293,5.765,5.765,0,0,0-.378,2.2,5.452,5.452,0,0,0,.431,2.316,1.908,1.908,0,0,0,1.48,1.293A3.858,3.858,0,0,0,4126.488,13813.994Z" transform="translate(-4065.673 -13798.975)"/></g><g transform="translate(0 18.613)"><path class="a" d="M3809.08,13882.467a2.539,2.539,0,0,1,.679.078,3.092,3.092,0,0,1,.94.445,1.174,1.174,0,0,1,.183.65,8.341,8.341,0,0,1-.078.838,1.072,1.072,0,0,0-.026.285c0,.209.026.42.026.6v.445c0,1.045-.209,2.77-.209,3.631,0,.287.027.547.027.809s-.027.521-.027.783c-.026.68-.156,1.385-.156,2.09-.079,1.385-.1,2.533-.1,3.914v.266c0,.494-.052.992-.052,1.488,0,.234.026.5.026.783a2.365,2.365,0,0,1-.1.783c-.183.5-.5,1.043-.992,1.1a4.957,4.957,0,0,1-.626.025c-.575,0-1.149-.1-1.176-.5a.764.764,0,0,0-.679-.756,1.13,1.13,0,0,0-.548.209,2.377,2.377,0,0,1-.94.26,4.925,4.925,0,0,1-1.2.133h-.208a4.044,4.044,0,0,1-2.037-.889,4.51,4.51,0,0,1-1.019-1.1,7.44,7.44,0,0,1-.888-2.584,2.2,2.2,0,0,1-.052-.471,5.365,5.365,0,0,1,.052-.785,8.825,8.825,0,0,1,.5-2.844,9.5,9.5,0,0,1,1.148-1.908,4.1,4.1,0,0,1,.6-.705,7.051,7.051,0,0,1,.914-.6,4.038,4.038,0,0,1,1.985-.441c.262,0,.522-.027.758-.027s.47.027.757.027c.1,0,.235.025.339.025a.447.447,0,0,0,.392-.156,2.238,2.238,0,0,0,.209-1.1c.052-.5.1-1.777.157-2.273v-.678c0-.783.079-1.621,1.071-1.83A1.655,1.655,0,0,1,3809.08,13882.467Zm-5.354,9.609a4.379,4.379,0,0,0-.757,1.568,7.258,7.258,0,0,0-.183,1.41,4.213,4.213,0,0,0,.183,1.2,1.829,1.829,0,0,0,1.018,1.332,2.647,2.647,0,0,0,.915.234h.1c.679-.08,1.28.078,1.776-.365.235-.184.288-.68.313-.863,0-.338.026-.652.026-.965v-.5a10.553,10.553,0,0,1,.131-1.307v-.941a3.87,3.87,0,0,1,.026-.547v-.08a1.021,1.021,0,0,0-1.175-1.15,1.888,1.888,0,0,0-.392.027A2.8,2.8,0,0,0,3803.726,13892.076Z" transform="translate(-3799.834 -13882.467)"/><path class="a" d="M3872.207,13907.226a5.631,5.631,0,0,1,2.021.3,4.656,4.656,0,0,1,.809.377,8.975,8.975,0,0,1,1.212.863,2.845,2.845,0,0,0,.485.646,4.182,4.182,0,0,1,1.132,2.537,4.051,4.051,0,0,1,.135,1.129,12.484,12.484,0,0,1-.243,2.021,11.727,11.727,0,0,1-.674,2.535c-.189.377-.512.676-.728,1.023a5.627,5.627,0,0,1-1.887,1.918,7.413,7.413,0,0,1-2.13.672,1.385,1.385,0,0,1-.323.025,3.555,3.555,0,0,1-1.24-.3,3.085,3.085,0,0,1-.729-.189,5.5,5.5,0,0,1-2.237-1.857,6.372,6.372,0,0,1-.782-1.859,10.356,10.356,0,0,1-.62-3.371,6.471,6.471,0,0,1,.027-.727,8.993,8.993,0,0,1,.539-2.076c.081-.242.107-.486.188-.729a5.132,5.132,0,0,1,1.968-2.184,4.445,4.445,0,0,1,1.186-.594A12.1,12.1,0,0,1,3872.207,13907.226Zm-1.78,4.18a2.953,2.953,0,0,0-.377,1.133,10.114,10.114,0,0,0-.242,1.967,5.43,5.43,0,0,0,.27,1.7c.35.836.755,1.674,1.725,1.727h.054a2.517,2.517,0,0,0,1.887-1.078c.135-.217.323-.621.485-.863a7.283,7.283,0,0,0,.377-2.291,4.7,4.7,0,0,0,.107-.916,1.689,1.689,0,0,0-.242-.973,5.9,5.9,0,0,0-.782-1,2.845,2.845,0,0,0-1.59-.35A1.944,1.944,0,0,0,3870.427,13911.405Z" transform="translate(-3854.664 -13902.855)"/><path class="a" d="M3964.45,13886.311a1.637,1.637,0,0,1,1.41.783,1.339,1.339,0,0,1,.078.549v.418c0,.209.026.418.026.678,0,.76-.053,1.725-.053,2.326v.34c0,.469.026,1.148.313,1.3a.354.354,0,0,0,.157.051,1.246,1.246,0,0,0,.391-.154,2.973,2.973,0,0,1,1.045-.312,9.969,9.969,0,0,1,1.359-.184,1.006,1.006,0,0,1,.287.025,4.66,4.66,0,0,1,1.854.811c1.228.73,1.489,2.221,1.489,3.629v1.07a6.8,6.8,0,0,1-.052,1.07c-.079.367-.235.707-.34,1.047a6.445,6.445,0,0,1-3.5,4.6,7.641,7.641,0,0,1-2.794.549,4.81,4.81,0,0,1-1.959-.367c-.47-.209-1.279-.393-1.514-.861a1.32,1.32,0,0,1-.1-.627v-2.324c0-1.123.13-2.455.157-3.551v-.158c0-.34-.052-.678-.052-1.018v-.156c.025-.941.1-2.193.1-3.162v-.207c0-.287-.026-.654-.026-.967a1.807,1.807,0,0,1,.026-.391,1.5,1.5,0,0,0,.026-.34c0-.236-.026-.443-.026-.68v-.129c.1-.811.052-1.883.1-2.691.052-.471.783-.73,1.253-.912A1.193,1.193,0,0,1,3964.45,13886.311Zm1.331,9.271a1.148,1.148,0,0,0-.129.6c0,.184.026.363.026.521-.026.313-.052.654-.052.967,0,.418.026.836.026,1.254v.756c0,.473.026.914.026,1.385,0,.078-.026.184-.026.287a.708.708,0,0,0,.183.521.617.617,0,0,0,.391.105,2.81,2.81,0,0,0,.522-.053,3.824,3.824,0,0,0,2.4-1.227,7.048,7.048,0,0,0,.47-1.02,4.977,4.977,0,0,0,.366-1.932,10.293,10.293,0,0,0-.1-1.229,2.168,2.168,0,0,0-.418-1.07,2.37,2.37,0,0,0-1.619-.652,1.213,1.213,0,0,0-.313.027C3967.062,13894.9,3966.069,13895.139,3965.781,13895.582Z" transform="translate(-3933.833 -13885.632)"/><path class="a" d="M4031.212,13908.309a3.683,3.683,0,0,1,2.612.992,5.693,5.693,0,0,1,1.358,2.35,5.238,5.238,0,0,1,.34,1.621,1.261,1.261,0,0,1-.027.314,1.656,1.656,0,0,1-.365.992c-.157.156-.68.156-.967.26a4.241,4.241,0,0,1-1.332.129,4.831,4.831,0,0,0-.654.027,19.213,19.213,0,0,1-2.089.131h-.312c-.393,0-.81.051-.81.627a2.967,2.967,0,0,0,.208,1.1c.393.6.575,1.3,1.333,1.514a3.486,3.486,0,0,0,1.019.182,5.92,5.92,0,0,0,1.332-.234c.706-.182.81-.652,1.62-.705.131,0,.262-.027.392-.027a.566.566,0,0,1,.522.211,1.944,1.944,0,0,1,.444.939c0,1.332-1.123,2.039-2.3,2.428a7.357,7.357,0,0,1-2.246.367,3.662,3.662,0,0,1-.966-.105,9.12,9.12,0,0,1-2.325-.914,6.11,6.11,0,0,1-1.123-1.2,6.985,6.985,0,0,1-1.279-4.23,8.554,8.554,0,0,1,.1-1.412,7.15,7.15,0,0,1,.993-3.105c.235-.314.522-.627.784-.914a3.6,3.6,0,0,1,2.35-1.2A12.783,12.783,0,0,1,4031.212,13908.309Zm-1.958,3.787a1.219,1.219,0,0,0-.157.574.39.39,0,0,0,.1.287.555.555,0,0,0,.392.105h.156c.706,0,.993-.08,1.672-.08a1.888,1.888,0,0,0,1.123-.391.528.528,0,0,0,.078-.287,1.306,1.306,0,0,0-.052-.314c-.078-.365-.208-.365-.521-.6a2.02,2.02,0,0,0-1.045-.26h-.131A1.647,1.647,0,0,0,4029.254,13912.1Z" transform="translate(-3985.761 -13903.749)"/><path class="a" d="M4096.018,13910.059h.862a2.561,2.561,0,0,1,.443.027,5.033,5.033,0,0,1,1.959,1.043c.262.154.522.627.81.65h.051a.9.9,0,0,0,.523-.26c.47-.236,1.018-.7,1.462-.914a5.308,5.308,0,0,1,1.933-.416c.052,0,.1-.029.183-.029a2.936,2.936,0,0,1,.679.107,3.734,3.734,0,0,1,1.357.627,2.055,2.055,0,0,1,.758.574,4.052,4.052,0,0,1,.887,1.723,13.856,13.856,0,0,1,.131,2.168v1.594c0,1.1.13,2.166.13,3.234v.238c-.026,1.045-.026,2.375-1.279,2.688a1.136,1.136,0,0,1-.312.029,1.677,1.677,0,0,1-1.516-1.047,4.641,4.641,0,0,1-.131-1.2c0-.42.053-.809.053-1.229-.026-.887-.079-1.775-.079-2.664,0-.285.025-.547.025-.836v-.939c0-.211-.052-.443-.052-.652,0-.131.026-.236.026-.367a3.289,3.289,0,0,0-.052-.494,1.148,1.148,0,0,0-1.306-.941h-.106a3.547,3.547,0,0,0-1.121.287,1.82,1.82,0,0,0-1.228,1.1,1.846,1.846,0,0,0-.158.887c0,.336.027.678.027.939-.027.781-.157,1.566-.183,2.373.025.6.078,1.205.1,1.828v.264a4.679,4.679,0,0,1-.026.6c0,.158.026.285.026.443a1.534,1.534,0,0,1-.052.34,2.262,2.262,0,0,1-1.88,1.227h-.131a1.468,1.468,0,0,1-.653-.416,1.868,1.868,0,0,1-.731-1.594c-.026-.684-.052-1.361-.052-2.035,0-.314,0-.629.026-.916,0-.314.078-.6.1-.887a7.609,7.609,0,0,0,.053-1.1v-.734c0-.336.078-.754.078-1.174,0-.521-.1-.992-.6-1.2a2.325,2.325,0,0,0-.783-.154,2.466,2.466,0,0,0-1.279.416,1.845,1.845,0,0,0-.81.969,3.752,3.752,0,0,0-.157,1.225v.887c-.027.865-.105,1.752-.157,2.613v.234c0,.34.025.652.025.99a2.644,2.644,0,0,1-.025.447c-.079.992-.6,2.219-1.828,2.271a1.7,1.7,0,0,1-1.619-1.594c0-.416.078-.809.1-1.225v-.131c0-.158-.026-.314-.026-.473.053-.574.13-1.146.209-1.748v-.289c0-.363-.026-.68-.026-1.045v-.234c0-.861-.025-1.67-.025-2.535,0-.52-.183-1.3-.183-2.008a1.528,1.528,0,0,1,.5-1.334,1.457,1.457,0,0,1,.471-.182,4.8,4.8,0,0,1,.758-.078.9.9,0,0,1,.7.26c.131.131.392.473.575.473h.051a1.911,1.911,0,0,0,.731-.262,6.616,6.616,0,0,1,.7-.234,5.665,5.665,0,0,0,.627-.158A1.117,1.117,0,0,1,4096.018,13910.059Z" transform="translate(-4039.153 -13905.167)"/></g></g><path class="a" d="M3579.48,13793.055c-.858-1.764-1.569-3.59-2.835-4.758a6.482,6.482,0,0,0-5.169-1.5,12,12,0,0,0-5.189,1.686c-.878.51-3.042,1.52-3.192,3.607s-.129,2.016-.238,4.408c-.029.615.044,1.141-.679,1.24-.565.076-.717-.242-.781-.863a5.2,5.2,0,0,1,.069-1.736.656.656,0,0,0-.494-.752,1.2,1.2,0,0,0-1,.676c-.238.412-.787,2.5-2.1,5.227-.195.4-.547.666-.993.459a.867.867,0,0,1-.424-.912c.058-.088.954-2.145,2.006-4.463.128-.285.188-.332.081-.4-.241-.16-.33.027-.634.434s-2.9,4-3.036,4.16a.823.823,0,0,1-.919.139.62.62,0,0,1-.062-.832c.156-.2,2.523-4.189,2.654-4.355s.541-.555.353-.711-.363.057-.618.313-2.782,2.51-2.971,2.7-.545.588-.74.391a.98.98,0,0,1-.018-.973c.15-.174,3.011-3.371,3.124-3.484a.677.677,0,0,0,.057-.734.512.512,0,0,0-.7-.025c-.177.162-1.979,1.611-2.176,1.783s-.61.531-.8.275a.7.7,0,0,1,.138-.881c.243-.221,3.975-4.453,5.193-5.422a43.612,43.612,0,0,1,4.567-3.168,25.43,25.43,0,0,1,5.257-2.221,18.133,18.133,0,0,0-5.754-.584,20.24,20.24,0,0,0-4.855.887,21.568,21.568,0,0,0-4.585,1.945,15,15,0,0,0-3.751,2.908,13.347,13.347,0,0,0-2.6,4.363,10.278,10.278,0,0,0-.746,4.605,11.515,11.515,0,0,0,1.415,4.512,12.908,12.908,0,0,0,3.194,3.49c.729.707,2.285,2.385,4.309,1.834s2.329-.562,4.624-1.248c.59-.176.911-.4,1.253.25s-1.075,1.094-2.428,1.66c-.317.135-.241.3-.179.623s.167.512.633.6,3,.4,6.007.742c.444.053.724.041.675.529s-.764.648-.864.621a42.912,42.912,0,0,0-5.028-.785c-.309-.025-.414.18-.454.465s.139.332.623.486,4.694,1.516,4.891,1.59.6.375.5.7a.912.912,0,0,1-.861.555l-4.979-1.709c-.2-.07-.721.051-.806.281a.8.8,0,0,0,.439.828c.327.158,3.6,1.139,3.842,1.254s.264.518.145.766-.262.309-.476.225-4.4-1.266-4.548-1.332-.4-.2-.532.029a.419.419,0,0,0,.129.6c.213.115,2.33,1.064,2.556,1.2a.652.652,0,0,1,.2.834c-.179.258-.461.5-.75.338s-5.3-2.631-6.618-3.461a28.016,28.016,0,0,1-4.367-2.762,24.319,24.319,0,0,1-3.738-3.59,17.051,17.051,0,0,1-2.5-4.484,20.79,20.79,0,0,0,.956,5.693,21.593,21.593,0,0,0,2.326,5.33,18.545,18.545,0,0,0,3.761,4.469,16.352,16.352,0,0,0,5.214,2.557,17.31,17.31,0,0,0,5.679.951,7.981,7.981,0,0,0,4.579-1.422,12.516,12.516,0,0,0,3.582-3.361,14.934,14.934,0,0,0,1.856-4.576c.32-.963,1.172-3.117-.2-4.7s-.907-1.156-2.521-2.922c-.416-.457-1.067-1.092-.636-1.68s.946-.463,1.4-.025c.253.248.611.641.833.881s.591.744.854.551a1.139,1.139,0,0,0,.178-1.148c-.122-.461-1.208-2.8-2.2-5.654-.147-.422-.143-.723.319-.893s.657.465.676.566,1.176,2.309,2.072,4.693c.11.289.135.338.41.25s.338-.221.267-.723-.928-4.85-.946-5.059.1-.711.443-.762a.837.837,0,0,1,.815.547c.029.25.682,5.008.708,5.215s.334.643.579.619.44-.4.439-.768-.06-3.738-.06-4.008-.011-.713.264-.719c.667-.016.662.494.679.727s.359,4.082.36,4.244.129.9.391.922.27-.309.281-.551.214-2.545.232-2.807a.558.558,0,0,1,.609-.494c.312.051.6.148.581.477s-.051,5.916-.228,7.461a27.828,27.828,0,0,1-.516,4.766,24.905,24.905,0,0,1-1.307,4.633,17.432,17.432,0,0,1-2.506,3.936,19,19,0,0,0,4.044-3.248,17.828,17.828,0,0,0,5.609-18.809A19.768,19.768,0,0,0,3579.48,13793.055Z" transform="translate(-3541.226 -13780.911)"/></g></g></svg>