<svg xmlns="http://www.w3.org/2000/svg" xmlns:xlink="http://www.w3.org/1999/xlink" width="255" height="131" viewBox="0 0 255 131"><defs><style>.a{fill:#fff;}.b{opacity:0.074;clip-path:url(#a);}</style><clipPath id="a"><rect class="a" width="255" height="131" transform="translate(37.576 1110.424)"/></clipPath></defs><g class="b" transform="translate(-37.576 -1110.424)"><path class="a" d="M1260.2,9989.653c-5.369-11.034-9.816-22.466-17.737-29.767-8.405-7.745-19.261-10.4-32.339-9.362-9.3.739-20,3.328-32.469,10.548-5.49,3.184-19.033,9.488-19.965,22.579s-.816,12.6-1.5,27.563c-.176,3.851.278,7.145-4.24,7.765-3.537.48-4.486-1.512-4.887-5.41-.425-4.129-.419-5.118.431-10.855.315-2.128-1.061-4.412-3.091-4.705s-4.749,1.674-6.24,4.24-4.921,15.646-13.166,32.689c-1.219,2.521-3.421,4.162-6.212,2.867s-3.021-5.176-2.656-5.711,5.969-13.4,12.554-27.922c.8-1.77,1.172-2.074.506-2.509-1.512-.987-2.062.182-3.966,2.723s-18.153,25.017-19,26.024-4.03,2.147-5.751.863-1.365-3.957-.386-5.2,15.787-26.205,16.6-27.243,3.382-3.479,2.2-4.458-2.267.367-3.867,1.977-17.4,15.682-18.584,16.877-3.41,3.676-4.631,2.459-1.046-5-.107-6.094,18.836-21.087,19.541-21.81,1.426-3.347.355-4.579a3.217,3.217,0,0,0-4.347-.168c-1.112,1.021-12.383,10.083-13.616,11.154s-3.812,3.325-4.976,1.729a4.359,4.359,0,0,1,.857-5.514c1.524-1.376,24.87-27.856,32.494-33.91a269.135,269.135,0,0,1,28.568-19.83c9.008-5.411,21.094-10.2,32.894-13.881a112.777,112.777,0,0,0-36-3.655,126.337,126.337,0,0,0-30.378,5.538,135.25,135.25,0,0,0-28.689,12.167c-8.912,5.23-16.407,10.433-23.47,18.2a83.569,83.569,0,0,0-16.257,27.288c-3.823,10.513-5.621,19.911-4.665,28.818a72.29,72.29,0,0,0,8.845,28.238c7.349,12.715,17.83,19.738,19.985,21.826,4.557,4.415,14.294,14.914,26.959,11.476s14.57-3.523,28.923-7.814c3.692-1.1,5.7-2.472,7.839,1.557s-6.725,6.844-15.188,10.4c-1.983.83-1.514,1.881-1.12,3.9s1.041,3.2,3.958,3.756,18.777,2.484,37.586,4.645c2.782.32,4.529.255,4.224,3.314s-4.778,4.05-5.407,3.885a267.01,267.01,0,0,0-31.46-4.9c-1.934-.177-2.584,1.105-2.835,2.894s.867,2.074,3.893,3.036,29.367,9.487,30.6,9.952,3.761,2.352,3.12,4.4-3.9,3.991-5.387,3.477-29.9-10.273-31.155-10.7-4.507.329-5.039,1.763.7,4.212,2.75,5.19,22.521,7.118,24.039,7.847,1.651,3.232.905,4.787-1.635,1.92-2.976,1.391-27.536-7.913-28.451-8.339-2.517-1.219-3.33.2a2.616,2.616,0,0,0,.812,3.76c1.331.715,14.576,6.667,16,7.48s2.354,3.594,1.229,5.221-2.888,3.1-4.691,2.118-33.172-16.446-41.4-21.649c-3.405-2.149-14.986-7.3-27.325-17.282-7.578-6.13-16.143-13.446-23.384-22.459-6.51-8.1-11.578-17.668-15.652-28.058a130.14,130.14,0,0,0,5.985,35.613c3.448,11.408,7.946,22.926,14.552,33.357,6.446,10.18,14.019,20.127,23.532,27.967,9.126,7.52,20.627,11.867,32.628,15.98a107.772,107.772,0,0,0,35.523,5.96,50.025,50.025,0,0,0,28.645-8.894c8.975-5.969,17.116-12.959,22.412-21.033,8.347-12.736,10.71-25.9,11.616-28.631,2-6.021,7.334-19.509-1.263-29.424s-5.675-7.232-15.774-18.3c-2.6-2.846-6.678-6.811-3.978-10.487s5.923-2.9,8.729-.166c1.581,1.544,3.819,4.012,5.208,5.518,1.458,1.578,3.7,4.658,5.339,3.43s1.876-4.3,1.115-7.176-7.555-17.486-13.776-35.367c-.92-2.645-.891-4.537,2-5.59s4.1,2.9,4.227,3.539,7.353,14.449,12.964,29.37c.684,1.82.844,2.113,2.564,1.563s2.119-1.369,1.67-4.511-5.8-30.356-5.919-31.667.648-4.445,2.772-4.756,4.918,1.841,5.1,3.41,4.268,31.332,4.427,32.648,2.1,4,3.62,3.855,2.754-2.524,2.746-4.793-.37-23.389-.377-25.071-.073-4.47,1.651-4.507c4.171-.09,4.141,3.1,4.249,4.537s2.245,25.551,2.257,26.559.81,5.648,2.442,5.766,1.691-1.915,1.757-3.425,1.338-15.946,1.452-17.575a3.512,3.512,0,0,1,3.809-3.1c1.953.31,3.739.935,3.635,2.984s-.314,37.014-1.423,46.688c-.436,3.8-.038,15.411-3.229,29.808-1.949,8.793-3.894,19.077-8.181,28.966-3.832,8.84-9.221,16.571-15.674,24.646,9.794-5.5,17.336-12.508,25.3-20.32s16.586-15.295,22.27-24.981c5.6-9.549,8.885-20.439,11.845-31.382,2.861-10.567,5.664-21.594,5.664-33.064,0-9.759-2.6-19.131-4.688-28.252C1268.128,10006.733,1264.328,9998.143,1260.2,9989.653Z" transform="translate(-968.776 -8855.243)"/></g></svg>