<svg xmlns="http://www.w3.org/2000/svg" width="84.996" height="66.297" viewBox="0 0 84.996 66.297"><defs><style>.a{fill:#fff;}.b{fill:none;}</style></defs><g transform="translate(-788.149 -1498.161)"><path class="a" d="M794.584,1523.351c-.016.052-.031.106-.047.16-.023.08-.044.163-.066.246l.009-.01c.082-.091.167-.181.253-.266.067-.068.136-.134.205-.2.026-.064.054-.123.081-.184.021-.045.04-.092.061-.135s.056-.108.085-.161.048-.1.074-.142.058-.092.088-.138.058-.1.089-.14.06-.08.091-.12.067-.093.1-.136.063-.068.095-.1.076-.088.116-.128.066-.06.1-.09.085-.081.131-.119.069-.051.1-.077.1-.074.145-.108.076-.046.113-.07.1-.065.157-.095.085-.042.127-.063.107-.056.165-.081.094-.037.142-.056.113-.046.171-.067.1-.031.154-.046.12-.04.183-.056.11-.025.164-.038.129-.032.2-.045.123-.02.184-.031.133-.023.2-.033.155-.017.233-.025l.179-.02c.1-.008.2-.013.3-.018l.133-.008c.151-.006.306-.009.467-.009.182,0,.355.005.525.012.055,0,.109.006.162.01.113.007.224.015.332.026.023,0,.048,0,.071.005l-.039-.009c-.076-.017-.151-.03-.226-.043s-.122-.023-.183-.032c-.082-.013-.164-.023-.246-.033-.057-.007-.112-.015-.17-.021-.092-.009-.185-.015-.279-.022-.048,0-.095-.008-.142-.01-.142-.008-.284-.012-.428-.012-.241,0-.48.011-.717.031-.074.007-.146.02-.221.029-.161.018-.322.034-.48.063-.089.015-.174.039-.262.057-.14.03-.283.057-.421.094-.108.029-.213.067-.32.1s-.227.066-.338.107c-.051.04-.1.083-.15.125s-.077.062-.115.095c-.058.053-.114.109-.17.164-.029.029-.059.054-.087.083-.058.06-.114.125-.17.189-.024.027-.05.052-.073.08-.079.093-.156.19-.229.29a6.026,6.026,0,0,0-.427.671c-.067.179-.129.367-.188.559"/><path class="a" d="M795.1,1522.019l.023-.029c.085-.111.173-.219.263-.323.03-.032.059-.065.09-.1.081-.089.164-.174.25-.255.017-.017.034-.036.052-.052-.124.054-.245.11-.366.169l-.012.023q-.148.254-.284.53l-.016.034"/><path class="a" d="M804.635,1532.731c.093-.106.181-.214.267-.324.029-.146.054-.3.078-.448.012-.074.027-.145.038-.22.035-.227.065-.46.091-.694v-4.618c-.05-.455-.116-.9-.2-1.32-.007-.041-.018-.081-.026-.123-.034-.168-.069-.335-.107-.5-.017-.072-.037-.138-.055-.208-.033-.127-.065-.256-.1-.378-.094-.107-.191-.21-.288-.308a15.264,15.264,0,0,1,.562,4.769,15.534,15.534,0,0,1-.532,4.659c.067-.068.131-.138.2-.21.024-.027.05-.053.074-.08"/><path class="a" d="M795.517,1520.617c-.251.109-.494.227-.732.354-.077.042-.149.09-.225.134-.153.089-.309.175-.454.271l-.011.017c-.118.17-.23.349-.338.533-.023.039-.045.079-.068.117-.106.189-.207.383-.3.583-.006.011-.011.024-.016.035.047-.043.1-.083.145-.124s.125-.109.188-.161c.106-.089.214-.172.325-.255.062-.046.124-.094.188-.138.124-.089.253-.172.384-.254.052-.032.1-.067.155-.1.181-.108.366-.211.556-.306q.156-.256.327-.493c.035-.048.072-.091.107-.138.063-.081.123-.165.188-.242l-.035.013c-.129.049-.258.1-.384.152"/><path class="a" d="M793.974,1531.8c0,.083.009.166.017.248.038.057.079.109.119.164-.015-.073-.027-.147-.04-.223-.009-.049-.018-.1-.027-.146-.031-.18-.06-.363-.085-.551v.011c0,.128,0,.255.008.381,0,.039.006.078.008.116"/><path class="a" d="M795.809,1535.942c.033.044.069.083.1.125.078.1.156.194.237.283l.007,0c.217.081.437.153.66.214l.011,0c.225.061.452.113.683.154l.009,0c.231.04.466.072.7.093h.006q.358.031.724.032a7.869,7.869,0,0,0,3.146-.639c.181-.079.358-.162.533-.252.053-.028.1-.06.158-.09.118-.063.236-.127.35-.195.065-.04.127-.085.192-.126.1-.064.2-.126.292-.193.054-.037.105-.08.157-.118.1-.074.2-.148.294-.226.085-.179.164-.365.24-.557.022-.057.041-.117.062-.174.053-.14.105-.281.151-.427.026-.077.048-.159.073-.24.039-.13.078-.261.113-.4.024-.089.044-.179.067-.27s.036-.157.053-.234c-.011.013-.024.025-.036.039-.121.141-.246.28-.377.412-.053.052-.106.1-.161.155-.023.06-.048.117-.072.176s-.045.11-.068.162-.052.106-.078.159-.053.11-.081.162-.053.089-.08.134-.062.11-.1.161-.057.08-.086.119-.07.1-.107.15-.062.071-.092.107-.078.094-.119.138-.064.06-.1.09-.09.09-.137.131c-.032.029-.068.053-.1.08-.05.039-.1.08-.15.118-.035.024-.074.046-.11.07-.055.035-.107.071-.163.1-.039.023-.081.042-.121.063-.057.031-.113.062-.173.089-.044.021-.091.038-.136.057-.061.024-.119.051-.182.073s-.1.032-.151.049-.125.042-.19.06-.112.026-.167.039-.131.034-.2.048-.131.023-.2.034-.127.024-.195.033-.16.02-.242.029c-.058.006-.115.014-.177.019-.1.009-.2.013-.3.019-.05,0-.1.008-.149.009q-.23.009-.474.009c-.163,0-.322,0-.475-.009-.061,0-.119-.007-.18-.011-.089-.005-.179-.01-.265-.017-.067-.006-.13-.014-.2-.021s-.151-.016-.222-.027-.124-.02-.186-.031-.14-.022-.206-.036-.132-.031-.2-.048-.113-.024-.167-.039-.121-.039-.181-.058-.109-.033-.162-.051-.107-.044-.16-.066-.107-.041-.157-.064-.1-.052-.151-.078-.1-.047-.144-.075-.09-.057-.136-.087-.093-.056-.136-.087-.083-.065-.124-.1-.087-.065-.127-.1-.075-.072-.113-.108-.08-.074-.119-.115-.066-.076-.1-.114-.076-.085-.112-.131-.061-.084-.091-.126-.069-.093-.1-.143-.054-.091-.081-.137-.064-.1-.094-.158-.049-.1-.073-.147-.058-.113-.086-.174-.043-.1-.065-.158-.051-.117-.075-.18c-.053-.049-.106-.1-.157-.152-.111-.111-.217-.227-.32-.345a.408.408,0,0,1-.028-.03c0,.014.006.027.01.041q.084.336.186.652c.011.037.023.073.035.109q.1.313.223.608c.012.032.026.061.039.091.082.2.17.392.263.575.01.021.021.04.031.059.1.192.2.377.315.552s.21.317.322.464"/><path class="a" d="M805.249,1531.3c0,.2-.009.392-.023.584,0,.02,0,.041,0,.06.023-.034.045-.069.067-.1.04-.064.079-.129.116-.194s.091-.162.134-.243.068-.131.1-.2c.04-.085.078-.17.115-.255.028-.067.057-.133.083-.2.035-.087.066-.178.1-.267.023-.067.046-.133.067-.2.028-.093.053-.186.077-.28.018-.066.036-.132.052-.2.022-.1.04-.2.057-.3.012-.064.026-.127.035-.19.016-.111.027-.221.039-.333.005-.054.013-.107.017-.162.013-.167.02-.334.02-.5,0-.184-.009-.366-.023-.545-.005-.061-.014-.12-.021-.18-.013-.12-.026-.238-.045-.357-.011-.071-.027-.14-.041-.211-.021-.1-.041-.211-.066-.315-.019-.073-.041-.146-.062-.22-.027-.1-.056-.2-.089-.293-.025-.074-.053-.148-.081-.221-.034-.094-.07-.187-.11-.278-.031-.074-.065-.146-.1-.219-.042-.089-.087-.179-.134-.268-.037-.07-.076-.14-.116-.209-.05-.088-.1-.175-.158-.261-.042-.066-.086-.133-.131-.2-.02-.029-.042-.058-.063-.087.006.026.01.053.016.079l.033.17c.02.1.037.207.052.312.009.06.017.119.025.179.014.112.024.226.032.34.005.053.01.106.014.159.009.168.016.338.016.51v.212c.019.18.037.364.051.552.045.56.068,1.15.068,1.757a21.546,21.546,0,0,1-.119,2.32Z"/><path class="a" d="M806.633,1525.6q-.043-.261-.095-.515l-.045-.2c-.034-.153-.071-.3-.111-.454-.016-.06-.03-.121-.047-.181-.057-.2-.116-.4-.182-.589-.125-.178-.259-.349-.4-.517-.021-.026-.039-.054-.061-.08-.162-.194-.334-.381-.512-.558-.126-.127-.258-.25-.393-.368-.042-.037-.087-.073-.131-.11-.093-.08-.188-.158-.284-.233-.055-.043-.111-.084-.167-.125-.089-.066-.179-.131-.271-.193-.061-.042-.122-.083-.184-.122-.041-.028-.084-.052-.125-.078.055.088.1.182.158.274.036.064.074.127.11.192.114.211.223.427.324.651.068.056.136.116.2.175.028.024.056.047.082.071.1.087.19.176.28.267a8.453,8.453,0,0,1,1.779,2.629c.035.079.068.159.1.24l0-.026c-.007-.049-.017-.1-.025-.145"/><path class="a" d="M794.007,1535.327c-.084-.064-.169-.128-.251-.2l-.043-.032q.147.157.3.306l.017.017c.113.109.23.213.349.314l0,0c.114.1.233.19.353.278l.018.015c.1.076.21.148.318.219.025.016.048.035.073.051h0c-.073-.065-.144-.135-.215-.2-.026-.025-.055-.049-.081-.076-.1-.1-.205-.209-.3-.32-.024-.015-.046-.031-.07-.047-.112-.072-.222-.147-.331-.225-.047-.034-.092-.07-.138-.1"/><path class="a" d="M798.626,1519.938c-.107,0-.215,0-.321.012-.145.01-.287.028-.431.045-.1.011-.192.019-.287.034-.157.024-.311.056-.465.088-.079.017-.16.029-.239.048-.182.044-.36.1-.537.152-.046.014-.094.025-.139.04l-.044.048c-.124.137-.242.286-.357.44-.035.048-.069.1-.1.148-.048.069-.094.142-.141.214.062-.029.125-.057.189-.085q.186-.081.375-.151c.109-.082.22-.159.333-.233.034-.021.07-.039.1-.06.083-.05.166-.1.253-.144.047-.025.094-.047.142-.07.077-.037.154-.074.235-.107.053-.022.107-.043.161-.063.077-.03.155-.059.235-.085l.173-.053c.08-.023.161-.044.243-.064.06-.014.12-.029.182-.042l.256-.047.185-.028c.092-.012.186-.021.281-.029.059-.006.117-.012.177-.016h-.017c-.149,0-.3,0-.443.01"/><path class="a" d="M801.955,1520.546a4.877,4.877,0,0,0-.518-.206l-.03-.009a4.985,4.985,0,0,0-.561-.15l-.024,0a5.454,5.454,0,0,0-.606-.092H800.2c-.212-.02-.431-.031-.653-.031-.156,0-.308.006-.457.015-.048,0-.095.009-.142.013-.1.008-.2.018-.3.031-.055.007-.108.016-.161.024-.09.014-.179.03-.265.048l-.16.035c-.086.021-.171.043-.255.068-.049.014-.1.027-.147.043-.091.029-.18.062-.267.095-.038.015-.078.028-.115.044q-.186.075-.363.165c-.013.007-.026.016-.04.023-.089.046-.175.1-.26.148.034-.01.07-.017.1-.027.076-.021.153-.041.229-.059.14-.035.28-.067.422-.094.079-.015.158-.03.238-.043.15-.024.3-.043.453-.059.071-.007.141-.017.212-.023.223-.017.448-.028.674-.028a8.019,8.019,0,0,1,3.2.649c.167.072.33.151.49.233.051.025.1.052.148.079.112.059.222.121.331.184l.159.1c.107.067.212.135.315.207.045.03.091.06.136.092l.049.034-.02-.026a5.03,5.03,0,0,0-.353-.42l-.041-.043a4.665,4.665,0,0,0-.392-.366c-.013-.012-.027-.022-.04-.032a4.389,4.389,0,0,0-.433-.315c-.013-.009-.027-.015-.039-.024a4.517,4.517,0,0,0-.474-.261l-.035-.015"/><path class="a" d="M794.068,1532.631c.013.081.029.161.044.24s.027.127.042.19c.019.08.039.158.06.236.017.061.033.122.052.182.023.078.049.155.076.231.019.058.039.115.06.173.03.078.061.154.094.231.023.053.045.108.068.159.036.079.075.156.114.233.025.049.047.1.073.145.045.083.094.165.143.247.023.039.045.077.069.116.074.118.153.235.236.348s.159.209.243.308l.015.018q-.045-.066-.087-.135c-.066-.1-.131-.211-.192-.32-.007-.011-.012-.023-.018-.033-.056-.1-.11-.2-.161-.3-.016-.03-.03-.062-.045-.093-.042-.085-.084-.172-.124-.262l-.045-.107c-.037-.086-.075-.173-.11-.263-.018-.046-.036-.1-.053-.143-.03-.08-.061-.16-.09-.241-.021-.06-.039-.123-.059-.184s-.048-.143-.071-.217-.041-.146-.062-.219-.039-.13-.056-.2-.039-.161-.058-.241c-.015-.061-.031-.122-.046-.185-.052-.065-.1-.134-.154-.2,0,.032.007.063.012.094q.013.1.03.2"/><path class="a" d="M795.112,1520.022c.115-.1.233-.2.353-.295.027-.021.052-.043.079-.063.147-.112.3-.213.453-.31l.026-.018-.044.019c-.17.078-.339.161-.5.252l-.024.013c-.16.089-.317.185-.471.285-.048.031-.1.063-.143.1-.117.08-.233.163-.347.249-.045.034-.091.068-.135.1-.151.119-.3.242-.443.374-.094.114-.185.232-.272.351-.016.022-.032.046-.049.069-.067.1-.132.19-.2.288l-.069.11c-.054.089-.109.179-.16.27l-.063.112c-.009.015-.015.031-.023.046l.11-.092c.035-.029.071-.059.108-.088.136-.111.274-.219.417-.321.148-.156.308-.308.474-.453.122-.159.249-.309.379-.454.038-.043.077-.083.116-.125.093-.1.189-.2.287-.289l.139-.13"/><path class="a" d="M792.724,1522.756c.075-.12.151-.238.231-.354v0c.086-.122.174-.241.266-.357-.107.091-.215.183-.316.279-.066.141-.125.287-.182.434"/><path class="a" d="M792.3,1528.727c0,.094.009.186.014.28s.008.193.014.288.018.2.026.306c.008.083.013.167.022.248.011.106.025.21.038.314.01.075.017.152.028.225.015.112.035.22.053.33.01.065.019.131.031.195.019.108.043.213.064.318.014.064.024.129.039.193.021.1.048.2.071.292.017.068.032.136.05.2.027.1.057.2.086.3.018.06.034.123.054.183.03.1.063.189.1.283.021.059.039.121.061.178.033.092.07.181.106.271.023.058.045.118.069.175.039.092.081.181.122.271.024.051.046.1.071.156.041.085.084.167.128.248.027.055.054.11.083.163.042.078.087.151.132.227.032.055.063.112.1.166.043.07.09.138.135.206s.072.113.11.168.089.119.133.179.085.119.131.176.086.1.128.155.1.12.149.178q.266.167.547.317c.057.03.117.056.175.085.116.058.232.115.35.168l-.046-.05c-.077-.076-.151-.154-.224-.235l-.083-.095c-.094-.11-.185-.223-.271-.341s-.171-.243-.249-.368c-.03-.047-.055-.1-.084-.144-.047-.079-.095-.158-.139-.239-.028-.054-.053-.109-.08-.163-.04-.079-.08-.157-.115-.237-.025-.055-.045-.113-.069-.168-.034-.082-.069-.162-.1-.246-.022-.059-.04-.12-.06-.181-.028-.082-.056-.163-.081-.246-.018-.063-.033-.128-.049-.192-.022-.083-.045-.166-.064-.251-.015-.067-.026-.136-.038-.2-.016-.084-.034-.167-.047-.252s-.019-.146-.028-.22-.022-.159-.029-.24c-.046-.068-.087-.141-.131-.211s-.089-.14-.129-.212-.072-.139-.108-.208-.085-.156-.124-.238c-.03-.065-.056-.134-.085-.2-.038-.086-.077-.17-.11-.258-.026-.066-.047-.135-.071-.2-.03-.089-.064-.178-.092-.269-.021-.07-.036-.141-.055-.211-.024-.09-.051-.179-.071-.271-.018-.077-.029-.156-.044-.234s-.035-.17-.047-.256-.022-.191-.032-.287c-.007-.07-.018-.14-.023-.21-.013-.167-.019-.335-.019-.5,0-.184.007-.367.022-.547,0-.058.014-.115.02-.173.013-.123.025-.245.044-.366.009-.062.026-.123.038-.186.021-.114.041-.229.069-.342.015-.063.036-.124.053-.187.03-.11.058-.221.094-.33.022-.067.05-.131.074-.2.037-.1.073-.205.114-.305.03-.069.064-.136.1-.2.043-.1.085-.192.134-.286.036-.072.08-.14.12-.21.049-.087.1-.176.148-.261s.1-.151.153-.226.1-.15.151-.222c.009-.038.022-.076.032-.115.026-.1.052-.2.083-.29.012-.04.027-.077.04-.117.032-.092.063-.186.1-.278.023-.06.05-.119.076-.178s.055-.137.086-.2c.057-.124.119-.245.185-.364.07-.191.148-.375.229-.555.014-.032.027-.064.042-.095.079-.171.161-.334.248-.493l.016-.032c-.072.038-.145.077-.216.117s-.155.088-.23.135c-.112.068-.221.142-.33.215-.069.048-.139.093-.207.142-.117.085-.229.176-.34.266-.054.044-.111.086-.165.131-.162.139-.32.283-.471.435a13.281,13.281,0,0,0-.932,5.146q0,.294.009.581"/><path class="a" d="M792.417,1523.7c.048-.062.1-.121.15-.181s.075-.093.114-.139c.134-.158.275-.314.422-.462l.011-.024c.086-.2.179-.4.277-.589l.065-.127c.1-.192.209-.38.321-.56l.011-.018a7.555,7.555,0,0,0-.705.862l-.012.016c-.087.125-.167.255-.247.385-.024.04-.051.077-.075.118-.1.169-.2.344-.283.523-.018.066-.032.13-.049.2"/><path class="a" d="M796.148,1519.938l-.045.02c-.182.082-.359.174-.532.269l-.125.071q-.256.147-.5.313c-.019.014-.039.029-.059.042q-.222.159-.435.333l-.048.04c.067-.04.137-.074.205-.112s.124-.07.187-.1c.217-.115.437-.224.666-.322s.434-.176.654-.251l.013,0c.017-.019.037-.034.054-.051.071-.074.145-.146.223-.214.034-.031.072-.058.108-.088.065-.052.13-.1.2-.153l.035-.027c-.02.007-.04.015-.06.021-.183.066-.363.137-.539.215"/><path class="a" d="M806.955,1525.2c-.005-.061-.009-.124-.015-.185-.1-.21-.209-.415-.322-.616-.03-.052-.059-.1-.09-.155s-.058-.09-.087-.136c.008.026.015.053.022.079.021.072.04.148.059.221.037.141.072.284.1.427.018.079.035.158.051.236.032.152.059.306.086.461.012.071.025.142.036.214.034.226.066.454.09.687l.01.04c.036.124.071.251.1.381v-.732c0-.189-.005-.377-.015-.562-.007-.122-.019-.24-.03-.36"/><path class="a" d="M805.7,1534.393c.056-.067.106-.14.16-.209.105-.134.212-.266.309-.406.058-.083.108-.172.164-.257.085-.133.174-.265.253-.4.052-.091.1-.186.145-.279.073-.137.149-.273.216-.417.011-.12.02-.245.027-.369,0-.046.008-.091.01-.137.009-.174.013-.351.013-.529v-.782c-.01.041-.023.081-.034.122-.035.142-.075.282-.119.421-.02.065-.038.128-.06.192-.068.2-.14.4-.224.591-.042.1-.086.192-.131.287-.07.24-.15.473-.234.7-.018.049-.036.1-.055.146q-.125.329-.268.637c-.015.033-.033.066-.049.1-.087.181-.18.357-.276.528-.023.041-.046.082-.07.123-.109.187-.225.368-.346.543-.01.011-.016.024-.025.036.025-.023.051-.046.075-.07.181-.182.355-.371.519-.569"/><path class="a" d="M804.561,1520.782c-.088-.1-.179-.2-.272-.3-.032-.021-.067-.041-.1-.061q-.171-.107-.351-.2c-.054-.029-.107-.059-.162-.086-.15-.076-.3-.148-.461-.214-.048-.021-.1-.041-.146-.06-.168-.066-.338-.131-.514-.187l-.04-.012c-.185-.059-.377-.111-.571-.157l-.061-.016c.011.006.021.015.031.021.1.058.2.122.3.189.037.025.073.052.109.08.093.069.183.142.271.219l.04.033c.1.092.2.191.292.293.023.027.046.052.07.079.094.107.186.217.273.337.062.084.123.171.183.26.077.044.151.093.226.14s.178.107.264.165.17.121.255.183.147.1.218.155c.1.073.188.153.281.23.055.047.113.09.167.138.145.127.286.258.422.4.161.16.315.331.463.506.039.045.077.091.116.138s.082.1.121.144l0,0c-.008-.02-.016-.037-.024-.057-.05-.124-.1-.247-.156-.366-.02-.046-.042-.089-.063-.134-.044-.091-.087-.183-.133-.272-.025-.05-.052-.1-.077-.148-.044-.081-.088-.161-.134-.241-.028-.05-.058-.1-.088-.148-.046-.077-.092-.151-.14-.224-.031-.049-.062-.1-.094-.143q-.074-.109-.153-.216c-.031-.042-.062-.086-.1-.129-.057-.075-.117-.149-.177-.221-.028-.035-.056-.071-.085-.1"/><path class="a" d="M803.562,1536.188c-.015.022-.029.044-.044.064.08-.048.16-.094.238-.144.061-.039.123-.077.182-.118.2-.136.4-.278.579-.429.015-.016.028-.034.042-.05.121-.141.236-.289.348-.441.035-.048.07-.1.1-.145q.177-.252.338-.523c.024-.041.047-.083.07-.126q.144-.25.273-.519c.017-.036.036-.072.054-.11.1-.2.185-.416.268-.634.007-.017.013-.036.02-.053-.1.163-.2.321-.311.477-.024.034-.05.068-.075.1-.1.142-.209.28-.32.415l-.113.136c-.138.162-.28.32-.432.471-.094.093-.19.185-.289.275-.041.037-.085.073-.128.11s-.113.1-.172.15l-.006.01-.008.012-.013.024c-.085.181-.182.368-.284.548-.081.142-.168.276-.256.406-.022.031-.042.062-.065.092"/><path class="a" d="M806.795,1524.156q-.045-.205-.1-.408c-.023-.081-.044-.162-.068-.241-.044-.144-.092-.284-.143-.422-.025-.066-.046-.134-.072-.2-.08-.2-.165-.4-.26-.588q-.174-.249-.365-.48c-.031-.038-.064-.074-.1-.111-.1-.116-.2-.227-.311-.335-.04-.042-.081-.081-.122-.121q-.18-.172-.373-.331c-.026-.02-.049-.043-.075-.063l-.014-.01c.023.028.042.059.065.087.124.158.245.32.359.489.019.029.036.059.055.087.108.167.211.34.31.517.024.044.049.087.072.131.106.2.2.4.3.615l.054.127c.094.222.183.448.264.683l0,.009c.134.189.258.389.378.593.034.058.066.117.1.177s.078.133.115.2c-.008-.05-.014-.1-.024-.149-.015-.087-.033-.174-.051-.259"/><path class="a" d="M802.9,1520.856c-.048-.024-.1-.045-.147-.069-.1-.047-.2-.094-.3-.138.014.008.028.019.042.027q.138.084.27.177l.067.047c.1.077.206.158.3.243l.068.062c.08.072.158.146.234.224l.071.071c.091.1.179.2.264.305l.005.005c-.007-.011-.012-.025-.018-.037s-.028-.047-.041-.072c-.116-.207-.238-.408-.366-.6-.148-.085-.3-.166-.454-.245"/><path class="a" d="M798.288,1518.338c.055-.006.112-.009.169-.013l.242-.017c.08-.005.163-.008.245-.011l.184-.007c.146-.005.295-.006.447-.006q.4,0,.775.018c.1.005.182.014.276.021.146.01.3.018.436.033l-.033-.008-.065-.01c-.214-.036-.431-.065-.652-.085l-.049,0c-.229-.018-.463-.029-.7-.029-.145,0-.288,0-.43.01l-.138.009c-.1.005-.189.012-.281.02-.055.005-.108.012-.162.019-.083.008-.167.017-.248.029l-.173.027c-.075.012-.15.025-.224.039l-.029.007.016,0,.124-.014c.09-.009.179-.02.271-.027"/><path class="a" d="M796.845,1519.059c-.03.013-.058.027-.087.041-.1.046-.2.095-.3.147l-.113.062c-.089.049-.175.1-.261.155-.038.024-.076.047-.114.072-.09.059-.178.121-.266.184l-.087.063c-.115.087-.226.176-.336.271l-.052.048c-.089.08-.178.163-.266.248l-.1.108c-.039.04-.077.082-.114.122.018-.014.038-.024.058-.037q.234-.166.479-.314c.04-.024.08-.045.121-.068.151-.087.306-.168.463-.244l.112-.056c.185-.086.373-.164.567-.235.043-.017.086-.031.13-.047.2-.072.4-.137.612-.193a4.153,4.153,0,0,1,.5-.2,5.6,5.6,0,0,1,1.773-.265,4.927,4.927,0,0,1,1.793.316c.208.035.412.08.612.127l.109.027q.284.07.557.16l.1.035c.163.055.323.116.478.18l.085.035c.171.074.338.154.5.238l.041.019c-.032-.026-.062-.053-.093-.079l-.107-.089c-.081-.064-.162-.126-.245-.185l-.054-.041c-.105-.074-.212-.146-.32-.212l-.06-.034c-.086-.053-.174-.1-.263-.152-.036-.02-.073-.038-.11-.057-.075-.038-.151-.075-.227-.111l-.123-.056q-.117-.05-.237-.1c-.037-.015-.074-.031-.112-.044-.117-.043-.235-.083-.354-.119l0,0a8.539,8.539,0,0,0-1.828-.193,9.464,9.464,0,0,0-2.455.309c-.136.05-.27.1-.4.164"/><path class="a" d="M792.071,1534.453c-.058-.07-.11-.145-.166-.217-.112-.146-.225-.29-.33-.442l-.017-.024c.044.081.088.162.134.241.033.056.065.115.1.17.1.168.207.332.318.49.175.2.356.4.539.58.1.1.2.2.307.294-.076-.121-.15-.246-.218-.372l-.116-.113c-.192-.193-.376-.4-.55-.607"/><path class="a" d="M801.989,1518.667c.223.056.443.118.663.189.02.006.039.01.058.017l-.021-.011c-.12-.055-.24-.107-.362-.154-.187-.044-.379-.082-.576-.116-.047-.008-.1-.014-.144-.023l-.2-.025c.111.02.222.046.333.07.083.019.165.034.247.053"/><path class="a" d="M801.508,1537.533c-.125.024-.252.043-.38.063l-.052.008c-.214.03-.435.051-.656.069l-.161.01c-.225.014-.452.024-.683.024-.162,0-.333-.005-.509-.014h-.115c-.213,0-.426-.01-.637-.024l-.134-.009-.1-.007c.079.017.16.033.241.048l.075.013c.1.017.2.03.3.043.028,0,.056.007.084.011.1.01.2.018.3.024l.092.007c.129.007.26.011.392.011.154,0,.306-.007.457-.016l.132-.01c.113-.01.226-.021.338-.036l.122-.016c.146-.022.291-.047.433-.078l.059-.014c.123-.028.245-.06.366-.095l.039-.012"/><path class="a" d="M804.03,1537.437c.156-.086.3-.177.446-.273.041-.027.08-.056.119-.084.106-.075.207-.153.306-.235.038-.03.076-.061.113-.093.125-.109.246-.223.361-.345l-.009.007c-.182.131-.365.255-.551.371-.033.027-.067.051-.1.077-.081.065-.163.131-.246.192l-.1.071c-.085.06-.172.122-.259.178l-.121.075c-.083.052-.165.1-.25.151-.046.027-.093.051-.14.077s-.113.064-.17.093l.014-.006c.2-.079.4-.165.591-.256"/><path class="a" d="M805.982,1520.871c-.006-.006-.013-.01-.02-.016.107.146.206.3.3.462.023.037.043.077.066.115.076.134.15.274.219.418.025.05.049.1.072.15.084.183.165.372.238.573.136.212.262.43.38.652a11.3,11.3,0,0,1,1.246,5.366,12.468,12.468,0,0,1-.123,1.773,10.124,10.124,0,0,1-1.82,4.577c0,.009-.009.015-.013.023-.08.165-.168.325-.261.482l-.04.068-.026.046q.168-.153.332-.309a9.578,9.578,0,0,0,1.061-1.262,11.731,11.731,0,0,0,1.251-4.981c.014-.282.021-.57.021-.862a13.513,13.513,0,0,0-.745-4.661,10.35,10.35,0,0,0-1.589-2.117q-.269-.258-.551-.5"/><path class="a" d="M803.678,1537.4c-.07.033-.141.065-.212.1a10.178,10.178,0,0,1-3.89.777c-.214,0-.428-.009-.641-.023l-.169-.012c-.184-.015-.367-.034-.549-.059-.031,0-.063-.006-.093-.011-.209-.031-.415-.07-.622-.113-.05-.011-.1-.022-.15-.035q-.255-.057-.505-.129l-.07-.017.052.019c.081.03.164.059.246.085.058.02.116.039.175.057.087.027.176.051.265.074.055.016.11.031.165.044.1.026.2.047.3.067l.136.03c.148.028.3.052.448.073.324.022.663.033,1.009.033a13.351,13.351,0,0,0,1.972-.135l.078-.014.028-.007c.154-.036.3-.077.456-.122.054-.016.108-.035.162-.052.108-.034.215-.072.322-.112.056-.021.112-.043.167-.066.115-.046.229-.1.341-.149l.122-.055c.149-.074.3-.152.442-.235l.013-.009"/><path class="a" d="M806.209,1535.15c.023-.047.043-.1.065-.146.057-.126.112-.255.163-.388.026-.066.049-.134.074-.2.049-.141.1-.283.138-.429.009-.033.019-.064.028-.1-.015.029-.033.055-.049.084-.029.052-.061.1-.092.151-.094.163-.193.322-.3.473-.042.06-.087.119-.13.178q-.15.2-.31.389c-.054.062-.109.122-.165.182-.1.114-.213.223-.326.328-.063.061-.127.12-.194.177-.112.1-.229.189-.348.28-.072.054-.144.109-.218.161-.123.085-.252.164-.382.242-.077.046-.152.094-.231.138-.144.079-.294.149-.446.22-.072.033-.14.069-.214.1-.225.1-.458.184-.7.26l-.128.061c-.089.063-.182.121-.276.175a4.43,4.43,0,0,1-1.95.571c-.124.008-.251.012-.379.012a5.435,5.435,0,0,1-1.858-.31h0c-.155-.035-.307-.075-.457-.122s-.293-.094-.434-.149c-.277-.058-.553-.131-.825-.216s-.541-.187-.805-.3c-.2-.086-.391-.178-.581-.276l-.185-.1q-.192-.1-.378-.215c-.025-.015-.051-.027-.076-.043.068.058.135.119.2.176l.045.038c.131.108.265.209.4.306l.1.069c.136.1.273.188.413.274.121.058.243.113.368.166a9.764,9.764,0,0,0,3.808.766,10.012,10.012,0,0,0,3.836-.767,9.9,9.9,0,0,0,1.323-.7,9.545,9.545,0,0,0,1.136-1.109c.111-.128.226-.267.338-.411"/><path class="a" d="M793.609,1535.737a9.134,9.134,0,0,0,1.908,1.107c.135.059.271.113.409.164l.146.05c.089.032.179.063.27.091l.027.008c-.155-.083-.3-.172-.453-.267-.147-.071-.292-.146-.433-.225a7.466,7.466,0,0,1-2.495-2.241l-.025-.027c-.115-.122-.227-.25-.337-.38-.034-.041-.066-.082-.1-.122s-.069-.084-.1-.127c.015.059.029.119.046.179s.032.11.049.164c.056.181.115.359.183.531a10.214,10.214,0,0,0,.705.876c.067.074.135.148.2.219"/><path class="a" d="M795.131,1533.534l.011.028c.019.043.039.083.059.124.029.061.059.122.09.182.022.04.046.08.068.12s.063.109.1.161.052.076.077.113.068.1.1.145.057.072.086.106.074.087.112.129.062.066.095.1.079.079.12.115.069.061.105.09.085.069.13.1.074.054.113.08.093.061.141.09.081.048.123.071.1.053.151.079.087.042.132.061.109.046.165.068l.141.053c.057.019.118.038.179.056l.147.044c.064.017.13.031.2.047l.155.034c.069.014.142.025.214.036.054.01.106.019.161.026.077.011.158.018.238.027l.161.018c.091.007.185.012.28.018l.144.008c.146.005.3.008.451.008s.3,0,.45-.008l.141-.008c.095-.006.192-.011.284-.018l.159-.018c.081-.007.163-.016.24-.027.055-.007.106-.016.159-.025.073-.012.146-.023.216-.037l.154-.034c.066-.015.132-.03.2-.047s.1-.028.147-.044.122-.035.181-.056l.138-.053c.057-.021.113-.044.167-.068s.087-.04.131-.061.1-.051.153-.079.081-.046.121-.07.1-.059.142-.091.075-.052.112-.08.088-.067.132-.1.069-.057.1-.087.083-.077.123-.117l.094-.1c.038-.042.075-.086.112-.129s.057-.07.085-.106.07-.1.1-.145.052-.075.077-.114.064-.106.1-.161l.067-.119c.032-.059.061-.12.09-.181.02-.042.04-.082.059-.125a.223.223,0,0,0,.012-.028,6.816,6.816,0,0,1-8.888,0"/><path class="a" d="M806.435,1525.586a8.348,8.348,0,0,0-1.751-2.586c-.091-.091-.184-.179-.28-.267l0,0c.017.031.032.063.049.094.024.046.049.092.072.139.04.078.077.157.113.237.021.044.042.088.06.132.038.088.073.179.107.269.014.037.03.074.043.112.044.126.086.253.123.382.048.061.089.124.135.186.068.093.138.183.2.278.045.068.084.14.127.209.057.093.117.185.169.281.043.075.077.154.116.231s.1.183.138.277.065.165.1.248.077.184.11.278.057.188.085.282.057.171.079.259c.027.107.047.216.068.325.016.076.036.152.049.23.022.131.035.264.05.4.006.058.017.115.021.171q.024.288.024.577c0,.177-.007.353-.02.527-.005.069-.017.136-.024.2-.011.105-.02.211-.036.316-.012.079-.031.157-.046.236s-.032.184-.054.275-.046.167-.069.251-.043.169-.069.25-.058.163-.088.243-.056.166-.088.247-.071.156-.106.234-.07.162-.109.242-.081.15-.123.225-.082.158-.128.235-.094.145-.141.217-.092.147-.142.219c0,.009,0,.018-.005.026-.023.194-.054.383-.092.57-.006.032-.011.065-.018.1q-.06.279-.143.549l-.033.1c-.058.181-.122.36-.2.533-.007.017-.015.034-.023.051q-.109.252-.24.495c-.007.012-.012.027-.019.04.088-.081.174-.163.257-.246a8.251,8.251,0,0,0,1.617-2.294,14.322,14.322,0,0,0,.535-4.022,16.461,16.461,0,0,0-.085-1.688,7.941,7.941,0,0,0-.316-.872"/><path class="a" d="M803.278,1522.039c-.031-.032-.064-.063-.1-.094s-.076-.072-.117-.107-.07-.057-.106-.086-.083-.064-.127-.095-.075-.051-.115-.076-.09-.057-.137-.084-.082-.046-.124-.068-.1-.05-.148-.072-.088-.041-.133-.06-.106-.042-.161-.063-.092-.034-.14-.05-.117-.036-.176-.053l-.148-.042c-.062-.015-.127-.029-.191-.043s-.1-.022-.156-.032-.139-.024-.21-.035c-.053-.008-.1-.017-.159-.024l-.236-.026-.158-.016c-.091-.007-.185-.011-.279-.016-.048,0-.092-.007-.14-.008-.144-.006-.292-.008-.445-.008s-.3,0-.443.008c-.047,0-.093.005-.14.008-.093.005-.186.009-.276.016l-.158.016c-.079.008-.158.015-.234.026-.055.006-.106.016-.16.024l-.208.034c-.053.01-.1.022-.156.033s-.127.027-.189.042-.1.028-.149.043-.117.033-.173.052l-.142.05c-.054.02-.107.041-.159.062s-.089.039-.133.06-.1.047-.148.072-.083.045-.123.068-.092.055-.137.084-.077.05-.115.077-.085.061-.126.094-.072.056-.106.085-.079.07-.118.107-.065.061-.1.093-.074.08-.11.12-.059.067-.087.1-.069.089-.1.135-.053.07-.078.108-.065.1-.1.152c-.023.037-.046.073-.068.111-.033.057-.063.117-.093.176-.019.037-.039.072-.057.111l-.007.014a6.816,6.816,0,0,1,8.787.008l-.006-.014c-.02-.042-.042-.081-.062-.121-.029-.057-.057-.112-.087-.167s-.048-.077-.071-.116-.061-.1-.093-.149-.053-.073-.08-.11-.065-.09-.1-.133-.059-.068-.088-.1-.071-.081-.109-.12"/><path class="a" d="M806.951,1529.049c-.013.225-.028.447-.048.666l0,.036c-.022.229-.05.451-.082.673-.009.059-.017.117-.027.175-.032.2-.067.4-.107.6l0,.018c.036-.111.074-.221.1-.334.005-.018.008-.035.013-.051.037-.137.069-.276.1-.414.009-.041.018-.082.026-.124.03-.155.058-.309.078-.465v-2.2c-.011-.081-.028-.161-.041-.243.01.25.017.5.017.758s-.007.483-.017.72c0,.062-.006.123-.008.183"/><path class="a" d="M803.679,1522.3c.046.063.09.128.133.194.024.037.048.074.071.112.043.072.084.149.125.225.019.037.038.071.055.108.05.1.1.208.142.317.006.013.012.025.017.038.067.062.134.125.2.191.034.032.067.067.1.1-.026-.079-.05-.159-.076-.236s-.043-.128-.066-.19c-.071-.194-.144-.385-.224-.569-.031-.05-.063-.1-.1-.15-.13-.107-.265-.208-.4-.306l-.116-.08c-.046-.032-.093-.062-.139-.092.015.017.029.036.045.053.053.058.1.117.154.18.027.033.052.069.078.1"/><path class="a" d="M798.2,1537.32c.09.019.184.034.277.05l.158.026c.1.013.2.024.307.033.048,0,.094.01.143.013.152.009.307.016.465.016q.174,0,.342-.009l.11-.008c.075,0,.149-.009.222-.016.05-.005.1-.012.146-.019s.119-.013.176-.022.1-.018.146-.026.113-.02.168-.032.092-.022.139-.033l.163-.04c.047-.014.092-.029.139-.042s.1-.031.154-.048.09-.034.135-.049l.149-.057c.043-.018.085-.038.127-.057s.1-.042.146-.066.081-.043.122-.064.095-.048.141-.074.077-.047.116-.071.092-.055.138-.084l.109-.077c.045-.031.09-.061.133-.095s.07-.054.1-.081.087-.069.129-.106.064-.057.1-.086.085-.077.127-.117.059-.06.089-.092.083-.083.123-.127.056-.065.084-.1.079-.09.118-.138.052-.068.078-.1.068-.087.1-.133l-.064.044c-.048.034-.1.066-.144.1-.1.071-.206.139-.312.205-.054.034-.109.068-.165.1-.108.063-.218.124-.328.184l-.155.083c-.163.083-.328.162-.5.235a8.021,8.021,0,0,1-3.2.65c-.194,0-.386-.008-.577-.021l-.094-.006c-.183-.015-.364-.036-.544-.061l-.1-.017c-.183-.029-.364-.063-.542-.1l-.048-.011q-.259-.063-.514-.142l-.036-.009.038.026.052.032c.1.061.2.119.3.173l.088.043c.092.047.185.091.281.131.037.016.076.031.114.046.089.035.18.068.272.1.045.014.09.029.136.042.088.027.178.051.269.073.05.012.1.025.152.036"/><path class="a" d="M797.044,1519.677c-.013.007-.024.016-.037.023q-.117.072-.228.153c-.025.017-.049.035-.073.053-.063.048-.124.1-.183.149-.026.021-.05.041-.074.063l-.024.023c.072-.021.147-.036.22-.055.092-.025.183-.05.276-.07.131-.031.263-.056.4-.08.088-.016.177-.034.266-.047.148-.023.3-.038.45-.053.076-.008.151-.019.228-.025.228-.015.459-.026.691-.026a8.755,8.755,0,0,1,3.49.7c.221.095.436.2.648.312.025.013.053.024.078.038l-.015-.023a4.148,4.148,0,0,0-1.835-1.447,10.486,10.486,0,0,0-1.742-.141,8.675,8.675,0,0,0-2.24.289c-.1.049-.2.1-.292.159"/><path class="a" d="M799.5,1519.1c.038,0,.077,0,.115,0,.076,0,.15,0,.225,0s.152,0,.228.005c.1,0,.21.009.315.015l.113.005c-.066-.009-.131-.019-.2-.026s-.106-.013-.16-.017c-.177-.014-.356-.023-.539-.023-.254,0-.5.012-.737.034-.078.008-.15.023-.227.032-.114.015-.229.031-.339.051q.272-.033.546-.052c.087-.006.175-.008.263-.012.132-.006.264-.011.4-.013"/><path class="a" d="M793.958,1529.77q.039.742.128,1.425c.013.1.03.193.044.291.019.125.036.252.057.373.016.09.035.174.052.262.023.122.046.245.071.361.077.1.156.191.238.285.024.025.048.049.071.075.055.059.11.119.167.177a15.541,15.541,0,0,1-.532-4.657,15.106,15.106,0,0,1,.57-4.776l-.006.007a6.081,6.081,0,0,0-.421.466l-.01.01c-.034.14-.062.287-.092.434-.02.095-.043.186-.061.284-.027.148-.049.305-.073.459-.016.106-.036.207-.05.315-.022.162-.039.331-.057.5-.011.107-.025.211-.036.321-.025.279-.046.565-.06.859Z"/><path class="a" d="M793.818,1526.21c0-.155.005-.308.013-.46,0-.047.007-.094.01-.142.007-.1.016-.209.027-.311.005-.052.011-.1.018-.155.012-.1.027-.2.044-.3.008-.046.015-.093.023-.138,0-.019.006-.038.009-.055-.016.025-.035.05-.051.075-.04.063-.078.125-.115.188-.05.084-.1.169-.146.255-.035.066-.069.131-.1.2q-.064.129-.123.261c-.03.068-.059.136-.087.205-.036.089-.069.179-.1.269-.025.07-.049.14-.072.209-.029.094-.055.187-.08.282-.019.069-.038.138-.055.208-.023.1-.041.2-.06.3-.013.068-.027.133-.037.2-.017.111-.029.224-.04.336-.005.058-.014.114-.019.172-.013.17-.02.341-.02.515s.006.319.017.478c0,.052.011.1.017.156.009.106.019.212.035.316.009.062.021.124.032.185.016.094.032.189.052.281.014.066.032.131.048.2.022.087.044.175.069.262.02.068.042.132.064.2.027.083.054.167.086.25.025.066.051.132.079.2s.067.159.1.238.061.131.094.2.078.155.119.23.071.127.107.19l.057.091c0-.01,0-.022,0-.033-.008-.151-.013-.3-.013-.457v-1.523h0c-.021-.4-.032-.82-.032-1.241,0-.442.011-.881.032-1.305Z"/><path class="a" d="M797.3,1537.195c-.15-.059-.294-.124-.435-.2l-.009,0,.027.02c.088.065.178.126.269.185l.031.02.021.006c.193.055.388.1.586.142l.052.01c-.02-.006-.037-.013-.056-.018-.115-.034-.226-.07-.337-.11-.05-.019-.1-.036-.149-.055"/><path class="a" d="M805.91,1536.169c.057-.051.111-.1.165-.158s.12-.115.177-.173.11-.117.163-.176.109-.119.162-.18.1-.123.152-.185.1-.129.154-.195c.017-.021.032-.044.049-.067-.1.108-.2.212-.3.315-.239.232-.486.453-.736.657l-.022.03,0,0h0c-.087.137-.181.272-.28.4l.1-.086c.074-.063.147-.125.218-.189"/><path class="a" d="M791.995,1521.886c.049-.058.1-.117.146-.174.132-.149.266-.3.407-.441a9.883,9.883,0,0,1,1.024-.892c.093-.1.192-.2.292-.3a6.045,6.045,0,0,1,2.59-1.42c.116-.049.234-.093.354-.136a7.969,7.969,0,0,1,2.313-.433c.145-.007.292-.01.441-.01a7.764,7.764,0,0,1,2.806.492c.167.04.33.084.488.132a5.832,5.832,0,0,1,2.691,1.641c.187.138.371.285.552.438s.359.316.532.484c.141.146.277.3.409.448l.1.116c.124.148.246.3.361.452l.016.019c.087.115.17.233.252.35-.044-.091-.089-.18-.134-.269-.036-.07-.071-.14-.109-.208-.085-.154-.175-.3-.267-.448-.023-.034-.043-.071-.065-.1a8.165,8.165,0,0,0-.793-1.022c-.015-.016-.031-.03-.044-.046q-.192-.206-.4-.4c-.04-.037-.082-.071-.122-.106-.114-.1-.231-.2-.351-.3-.054-.041-.11-.08-.164-.121q-.167-.126-.341-.243c-.064-.043-.129-.083-.2-.124-.111-.07-.224-.138-.34-.2-.072-.04-.146-.079-.22-.116-.113-.06-.229-.116-.346-.17-.08-.037-.159-.072-.24-.106-.117-.05-.237-.1-.357-.142-.085-.031-.17-.063-.258-.091-.121-.042-.245-.079-.37-.116-.09-.026-.178-.052-.27-.076-.128-.033-.259-.062-.39-.09-.092-.02-.183-.041-.277-.059-.138-.026-.279-.046-.421-.067-.091-.013-.18-.029-.272-.04-.158-.019-.32-.032-.482-.044-.079-.007-.157-.016-.238-.021-.244-.013-.491-.022-.744-.022-.222,0-.441.009-.658.021l-.213.02c-.145.012-.289.025-.431.043-.083.011-.165.025-.247.038-.128.02-.256.039-.382.064-.085.017-.17.037-.255.056-.12.027-.24.054-.358.085l-.253.073c-.115.034-.229.07-.343.108-.082.029-.165.058-.246.088-.112.042-.224.086-.333.133-.079.032-.157.065-.233.1-.113.051-.222.1-.331.161-.072.035-.144.07-.214.108-.117.063-.23.13-.342.2-.06.036-.121.069-.18.106-.146.093-.288.191-.428.292-.022.016-.047.03-.069.047-.162.119-.318.244-.471.374-.046.038-.088.08-.132.119-.106.1-.211.189-.313.288-.054.054-.106.11-.159.164-.087.091-.175.182-.258.277-.054.061-.107.125-.16.188-.077.093-.155.188-.229.284-.051.067-.1.137-.152.206-.071.1-.141.2-.207.3-.048.072-.1.145-.141.218-.021.034-.04.07-.061.1l0,0c.074-.094.151-.186.229-.277"/><path class="a" d="M790.542,1525.66c.052-.14.108-.28.167-.418a9.425,9.425,0,0,1,.966-1.722l.014-.026c.1-.209.208-.418.326-.623v0c.122-.211.253-.419.39-.62.01-.023.022-.044.031-.066.057-.134.119-.265.183-.393.021-.041.042-.083.064-.124.07-.132.142-.261.218-.385.011-.017.02-.035.03-.051q.106-.171.222-.332l-.005,0c-.171.15-.339.305-.5.467a10.9,10.9,0,0,0-1.392,1.75c-.01.024-.019.048-.03.07-.075.17-.145.343-.212.519-.024.064-.047.126-.07.19-.071.2-.138.4-.2.606-.009.028-.016.059-.024.088q-.079.286-.147.583l-.039.175c-.047.223-.09.45-.124.68l0,.014c.025-.08.054-.158.082-.237.017-.049.032-.1.05-.147"/><path class="a" d="M794.151,1536.726c.138.1.28.193.424.284.064.04.129.077.2.116.109.064.219.127.331.186.07.038.142.075.214.11.115.057.232.112.35.164.067.029.134.06.2.088.148.061.3.118.449.17.03.011.058.023.088.033l-.052-.025q-.21-.09-.416-.2l-.131-.066c-.159-.084-.319-.172-.474-.268l-.006,0c-.159-.076-.317-.158-.472-.243-.043-.022-.085-.047-.126-.07-.129-.073-.255-.147-.381-.226l-.1-.061c-.13-.083-.259-.169-.385-.259.072.073.143.148.218.217l.07.047"/><path class="a" d="M791.479,1532.344c.079.214.166.421.258.626.023.052.048.1.072.155.082.174.17.345.262.513.018.034.035.068.054.1l.019.03q-.108-.332-.2-.684c-.067-.107-.127-.219-.189-.33-.044-.077-.091-.151-.133-.231q-.15-.285-.28-.586c.037.114.071.229.111.34.008.022.015.044.023.065"/><path class="a" d="M793.386,1535.922a9.608,9.608,0,0,0,.954.693l.011.008.011.007c-.1-.083-.2-.172-.3-.26-.043-.038-.086-.073-.128-.112-.143-.133-.283-.271-.421-.416-.131-.1-.259-.2-.385-.312a.108.108,0,0,1-.021-.017c.015.028.03.059.045.086.075.112.152.221.23.323"/><path class="a" d="M792.162,1532.226c.013.16.026.32.046.475.04.1.084.194.128.29.02.047.04.1.062.142.044.094.093.187.141.28.025.047.048.1.072.141.047.084.1.167.145.25.031.051.059.1.09.153.08.129.164.256.251.379l.122.126c.14.139.285.271.434.4l.117.1c.134.112.272.221.414.324l.04.031c-.058-.075-.114-.153-.169-.23-.024-.033-.049-.064-.072-.1-.083-.119-.164-.242-.241-.365-.02-.034-.038-.068-.059-.1-.056-.093-.112-.187-.166-.284l-.078-.149c-.044-.083-.088-.166-.129-.252-.027-.056-.053-.114-.08-.171-.038-.081-.076-.163-.112-.248-.026-.06-.05-.123-.076-.185-.033-.082-.067-.165-.1-.249-.023-.065-.046-.131-.07-.2-.029-.084-.059-.169-.087-.256-.022-.067-.042-.135-.064-.2-.027-.088-.052-.175-.077-.264-.02-.069-.038-.14-.056-.211-.024-.088-.045-.179-.067-.271-.016-.072-.033-.144-.05-.218-.019-.092-.038-.185-.056-.28-.015-.074-.029-.147-.042-.223-.017-.1-.032-.193-.047-.291-.011-.074-.023-.15-.033-.225-.014-.1-.026-.2-.038-.307-.008-.075-.018-.148-.025-.224-.011-.108-.02-.218-.029-.328-.005-.072-.011-.143-.017-.216-.008-.122-.014-.248-.018-.372,0-.061-.007-.121-.009-.183q-.009-.282-.009-.569,0-.355.014-.7c0-.076.01-.151.014-.228.008-.152.016-.3.028-.454.008-.089.018-.175.026-.263.014-.134.027-.268.044-.4.012-.092.026-.181.04-.272.017-.125.036-.249.058-.372.016-.091.033-.181.051-.271.023-.118.048-.237.074-.352q.03-.135.063-.267c.029-.113.058-.225.089-.336.025-.087.05-.173.076-.259.033-.109.068-.217.1-.323.028-.085.058-.167.087-.249l.039-.11c-.047.052-.1.1-.141.154s-.075.086-.112.13c-.13.157-.255.317-.371.481-.022.1-.039.2-.057.305-.011.061-.023.121-.033.182-.018.114-.031.231-.044.349-.007.055-.016.108-.021.164-.013.13-.021.262-.03.394,0,.045-.008.089-.009.134-.009.179-.014.36-.014.542v5.265c0,.226.007.45.021.669,0,.058.012.111.017.169"/><path class="a" d="M792.483,1533.608l0-.007c-.06-.111-.118-.225-.174-.339.01.048.015.1.026.147.048.068.1.132.152.2"/><path class="a" d="M793.514,1536.412a8.688,8.688,0,0,1-.807-.775c-.034-.038-.066-.077-.1-.116a8.748,8.748,0,0,1-.606-.761c-.168-.2-.325-.4-.476-.6-.049-.066-.093-.135-.14-.2-.1-.142-.2-.285-.286-.431-.021-.034-.045-.065-.065-.1a8.916,8.916,0,0,0,3.437,4.07c-.169-.158-.334-.326-.491-.5s-.323-.384-.467-.581"/><path class="a" d="M808.563,1524.359c-.013-.031-.027-.06-.042-.09.008.028.013.057.021.086.066.245.126.495.178.752.011.053.02.107.03.161q.067.357.117.729c.007.053.015.1.022.158.035.282.06.57.079.864.005.064.007.129.012.194.016.306.027.615.027.933,0,.265-.008.524-.018.78-.005.08-.009.157-.015.237-.011.178-.023.355-.038.528-.008.086-.017.171-.026.255-.02.173-.041.344-.066.513-.01.072-.019.144-.031.214-.038.236-.08.468-.13.7l-.006.025c-.048.217-.1.428-.159.635-.019.068-.041.135-.06.2-.045.148-.091.3-.141.439q-.038.109-.078.216c-.017.047-.032.095-.05.141.047-.087.092-.176.137-.265.027-.052.055-.1.08-.156.075-.156.148-.315.216-.476l.055-.133a15.172,15.172,0,0,0,.4-3.607,14.645,14.645,0,0,0-.518-4.03"/><path class="a" d="M808.143,1533.388c-.032.054-.062.11-.1.163-.106.173-.215.344-.33.506a8.55,8.55,0,0,1-.506.833,7.945,7.945,0,0,1-1.987,2.007l-.044.049c-.02.024-.044.05-.067.076-.136.153-.278.3-.422.435-.045.043-.092.083-.137.125q-.156.142-.319.273c-.029.024-.055.05-.085.073a8.36,8.36,0,0,0,4.261-5.023c-.017.033-.036.065-.053.1-.069.131-.142.259-.216.386"/><path class="a" d="M809.056,1526.021c.008.057.018.115.025.172.028.207.051.417.071.63,0,.053.007.107.012.161.014.173.025.347.034.524,0,.064.007.128.009.193.008.226.015.455.015.688,0,.293-.01.579-.024.862,0,.076-.008.151-.012.226-.015.243-.035.483-.06.718,0,.041-.007.083-.012.122-.025.223-.054.444-.089.659a9.772,9.772,0,0,0,.364-2.653,9.919,9.919,0,0,0-.426-2.876c.007.038.012.08.02.118.026.15.051.3.073.456"/><path class="a" d="M804.344,1537.585c.081-.07.16-.142.239-.217l.115-.112.046-.048c-.012.007-.024.012-.034.019q-.3.18-.613.332h0a7.5,7.5,0,0,1-2.466.79c-.145.032-.291.06-.44.085a8.529,8.529,0,0,1-.859.092c-.17.011-.343.017-.516.017-.254,0-.507-.011-.753-.03h-.014c-.1-.005-.205-.014-.307-.023-.233-.017-.465-.041-.692-.075a7.3,7.3,0,0,1-3.664-1.308c-.134-.1-.264-.208-.388-.319l-.01-.009c.033.041.066.081.1.12a7.267,7.267,0,0,0,1.06.98,9.7,9.7,0,0,0,4.431,1.039,10.645,10.645,0,0,0,3.916-.7q.2-.123.385-.261l.063-.048c.1-.073.2-.152.294-.232.037-.03.074-.062.11-.094"/><path class="a" d="M790.112,1530.695c-.008-.052-.018-.1-.025-.154-.031-.2-.056-.41-.077-.618-.006-.059-.01-.12-.016-.178q-.023-.246-.036-.495c0-.065-.007-.128-.01-.192-.009-.221-.016-.444-.016-.669,0-.265.009-.525.022-.783,0-.07.008-.141.013-.21.014-.211.031-.419.053-.624.005-.05.009-.1.015-.149.029-.248.065-.491.108-.731.01-.055.021-.109.031-.164.037-.192.077-.382.121-.569.009-.037.015-.077.024-.114a9.983,9.983,0,0,0-.555,3.278,9.76,9.76,0,0,0,.449,2.942c-.008-.036-.012-.073-.019-.109-.03-.153-.058-.307-.082-.461"/><path class="a" d="M802.05,1538.8c-.062.014-.126.026-.189.039-.192.039-.386.072-.583.1l-.1.015c-.228.032-.461.053-.7.07-.058.005-.115.009-.173.011-.241.014-.484.024-.732.024-.183,0-.365-.005-.547-.015l-.169-.011c-.127-.009-.254-.02-.379-.034l-.188-.021c-.126-.015-.251-.034-.376-.054l-.162-.026c-.175-.031-.35-.066-.522-.106l-.049-.013c-.157-.038-.31-.079-.463-.123-.056-.016-.11-.034-.165-.052-.116-.036-.23-.073-.344-.114-.058-.02-.115-.04-.173-.062-.038-.015-.077-.028-.116-.042a7.435,7.435,0,0,0,3.639.877,7.665,7.665,0,0,0,3.155-.631c-.017.005-.034.008-.052.014-.2.057-.407.107-.615.153"/><path class="a" d="M791.3,1533.086c.033.059.071.115.106.173.094.157.19.312.292.462.053.077.11.151.166.225.091.125.183.249.28.369.065.081.135.157.2.235s.119.13.18.2c-.048-.1-.094-.207-.139-.314q-.213-.32-.4-.654a10.865,10.865,0,0,1-1.318-5.381c0-.211,0-.418.014-.624,0-.066.008-.131.012-.2.008-.14.017-.28.03-.417.006-.074.015-.148.023-.221.013-.129.029-.257.047-.383.009-.073.02-.144.031-.216.021-.134.045-.266.071-.4.012-.059.022-.118.034-.177.039-.187.082-.373.131-.556l.007-.026c.047-.174.1-.343.152-.513.018-.054.038-.108.057-.163.027-.078.052-.157.081-.234-.01.019-.021.035-.032.053-.061.106-.118.214-.176.323-.027.052-.056.1-.082.155-.08.162-.158.326-.231.493a8.413,8.413,0,0,0-.542,1.772c-.025.352-.038.715-.038,1.077a12.61,12.61,0,0,0,.689,4.26q.162.35.351.68"/><path class="a" d="M795.529,1536.435c.149.118.3.23.456.332.171.082.348.155.526.224l.107.041.1.033c-.015-.01-.027-.023-.041-.034-.071-.055-.14-.113-.208-.173l-.087-.076c-.093-.085-.185-.174-.273-.267l-.061-.048-.01-.009c-.1-.038-.193-.077-.289-.118-.185-.079-.367-.169-.546-.262-.039-.02-.078-.04-.116-.061l-.094-.049.043.041c.122.116.246.226.374.332.039.032.078.064.118.094"/><path class="a" d="M791.134,1533.23c-.028-.06-.058-.117-.083-.178-.084-.194-.163-.392-.234-.594q-.057-.118-.108-.237c-.067-.156-.127-.314-.185-.473-.018-.048-.033-.1-.051-.147-.038-.113-.075-.227-.109-.343-.006-.02-.014-.04-.019-.06.005.027.01.056.017.083.029.14.061.278.094.415.015.057.029.113.043.17.049.184.1.367.157.546a9.586,9.586,0,0,0,.641,1.171c-.057-.115-.11-.235-.163-.353"/><path class="a" d="M791.47,1531.876c.077.179.162.353.251.525.019.039.04.078.061.116s.037.066.056.1l-.006-.035c-.035-.167-.068-.339-.1-.513l-.024-.147c-.031-.2-.061-.394-.087-.6-.053-.224-.1-.455-.139-.689a13.21,13.21,0,0,1-.184-2.246,12.727,12.727,0,0,1,.309-2.87l0-.028c.011-.1.024-.195.037-.292v0c-.062.126-.122.254-.178.384a8.07,8.07,0,0,0,0,6.29"/><path class="a" d="M791.795,1523.592c-.077.165-.149.333-.218.5l-.023.059c-.064.16-.122.323-.178.488,0,.015-.01.028-.014.043-.059.181-.115.366-.165.554l-.006.023c-.044.169-.084.342-.12.515-.009.04-.017.079-.025.12q-.051.254-.092.515c0,.016-.005.032-.008.048-.023.151-.04.307-.057.461.01-.043.022-.086.033-.13s.024-.1.037-.154c.021-.078.044-.156.066-.233.015-.048.029-.1.043-.143.027-.084.056-.166.086-.248.015-.041.027-.081.042-.121.046-.121.094-.242.145-.361s.117-.261.18-.388l.03-.058c.053-.1.1-.208.161-.309l0-.021c.038-.233.083-.459.13-.68.011-.05.021-.1.033-.148.049-.219.1-.432.162-.636,0-.011.005-.024.009-.036l-.011.014c-.083.107-.165.214-.244.323"/><path class="a" d="M807.063,1532.669v.085c.007-.018.011-.037.018-.056.056-.161.109-.415.157-.581-.014.035-.029.069-.044.1-.034.081-.071.161-.107.241-.007.069-.015.139-.024.207"/><path class="a" d="M807.14,1531.388c0,.2-.007.4-.018.6v.04c.022-.055.045-.11.066-.165.015-.04.032-.08.047-.121.044-.12.086-.24.124-.36a24.48,24.48,0,0,0,.167-3.022c0-.686-.022-1.338-.065-1.935-.048-.184-.105-.367-.168-.548-.017-.049-.038-.1-.056-.146-.037-.1-.078-.206-.12-.308,0,.015,0,.032,0,.049.014.214.023.43.023.649v1.5c.024.182.042.365.054.55s.018.371.018.559a8.516,8.516,0,0,1-.072,1.109Z"/><path class="a" d="M806.816,1523.495c-.013-.03-.028-.059-.041-.089-.026-.056-.055-.107-.081-.161.028.083.053.167.078.252.008.027.017.053.025.08.058.2.108.411.152.622.009.044.017.089.026.132.04.213.076.428.1.646.041.089.08.177.119.265q.113.263.209.533c0-.022,0-.045-.007-.066-.011-.117-.026-.23-.039-.343-.006-.045-.011-.091-.017-.136-.021-.151-.041-.3-.064-.442-.06-.216-.127-.425-.2-.629-.011-.03-.021-.061-.032-.09q-.106-.3-.231-.574"/><path class="a" d="M806.953,1523.319c-.018-.062-.034-.126-.052-.187-.053-.172-.108-.338-.167-.5a10.084,10.084,0,0,0-.877-1.177c-.031-.036-.065-.069-.1-.1.071.1.137.211.2.318.021.036.046.07.067.106.088.15.17.3.246.453l.006.009c.107.157.207.323.3.492l.061.107c.094.172.185.349.268.532.015.033.027.066.041.1.035.076.069.151.1.229l-.005-.022c-.031-.122-.064-.238-.1-.355"/><path class="a" d="M806.956,1534.042c.094-.164.188-.33.274-.5.039-.076.073-.156.11-.234.073-.154.144-.31.209-.469.036-.087.07-.178.1-.267.057-.152.113-.306.163-.463.031-.095.06-.192.088-.289q.067-.234.124-.471c.024-.1.048-.2.069-.3.034-.164.063-.328.09-.494.016-.1.034-.2.047-.3.025-.181.042-.366.058-.552.009-.088.02-.176.026-.266.017-.276.028-.556.028-.842,0-.269-.009-.533-.024-.8-.005-.086-.014-.169-.021-.254-.014-.175-.028-.348-.049-.519-.011-.1-.027-.2-.041-.295-.023-.153-.046-.306-.073-.457-.02-.1-.041-.2-.062-.3-.031-.144-.063-.287-.1-.428-.026-.1-.052-.2-.08-.3-.041-.138-.083-.276-.128-.412-.031-.095-.063-.189-.1-.282-.049-.137-.1-.272-.158-.406-.037-.087-.072-.175-.11-.26-.064-.143-.133-.283-.2-.422-.036-.072-.071-.146-.108-.218l-.021-.034c.037.127.073.257.106.391l0,.013c.039.158.076.321.111.488.009.042.017.084.026.127.035.173.068.348.1.529.059.216.111.437.159.666a13.917,13.917,0,0,1,.265,2.229,9.228,9.228,0,0,1,.062,1.076,9.065,9.065,0,0,1-.205,1.936,11.442,11.442,0,0,1-.293,1.394c-.029.184-.063.361-.1.535l-.027.131c-.032.151-.066.3-.1.442l-.016.063c-.041.16-.086.315-.133.467-.011.038-.024.076-.036.114-.04.127-.082.25-.127.371l-.018.052.011-.015c.035-.059.066-.121.1-.178"/><path class="a" d="M801.826,1537.308c.208-.048.413-.1.612-.161a4.017,4.017,0,0,0,.34-.279l.061-.055c.013-.014.026-.029.04-.042l0,0c-.141.069-.286.136-.433.2-.129.056-.259.108-.389.156-.043.017-.086.03-.128.046-.089.031-.177.063-.267.091l-.166.049c-.078.024-.156.048-.236.069l-.187.044c-.049.012-.1.026-.149.037.03,0,.061-.005.091-.009l.116-.017c.209-.032.414-.068.616-.111l.083-.019"/><path class="a" d="M803.177,1536.458c.094-.109.184-.227.271-.35.024-.032.046-.067.069-.1s.04-.065.061-.1l0,0c-.038.043-.077.083-.116.124s-.068.073-.1.107-.079.076-.12.114-.072.067-.11.1-.083.07-.124.1-.076.064-.115.092-.084.063-.127.093l-.09.066c.014-.008.03-.014.045-.021.152-.073.3-.147.445-.225l.018-.011"/><path class="a" d="M806.225,1521.526c-.068-.121-.139-.24-.212-.353l-.006-.008c-.076-.115-.156-.225-.238-.332l-.061-.08c-.083-.1-.166-.205-.255-.3-.047-.035-.1-.067-.143-.1-.118-.083-.238-.166-.36-.246-.068-.044-.136-.085-.205-.127-.118-.073-.238-.144-.359-.213l-.1-.053.032.029c.076.065.15.133.223.2.046.041.091.081.135.123.116.113.23.229.341.351.162.142.323.292.48.451s.313.326.464.5c.171.2.335.405.491.615.006.009.013.017.019.025-.063-.135-.129-.264-.2-.39-.016-.03-.033-.061-.05-.09"/><path class="a" d="M804,1536.471c.172-.1.338-.2.5-.314.058-.041.113-.086.171-.129.126-.094.25-.191.368-.295.062-.053.122-.11.182-.166.107-.1.21-.2.311-.312.058-.063.117-.127.173-.193.095-.111.186-.226.275-.346.051-.067.1-.135.153-.206.091-.131.176-.269.26-.408.038-.065.079-.127.116-.193.116-.207.223-.421.323-.645.027-.136.05-.276.071-.418-.035.067-.075.128-.11.194-.048.087-.1.173-.147.258-.079.135-.163.266-.25.394-.052.079-.1.159-.157.236-.1.137-.2.27-.306.4-.05.062-.1.126-.147.186-.16.189-.324.371-.5.545a8.338,8.338,0,0,1-.669.6c-.007.009-.015.015-.022.024-.123.139-.252.272-.383.4l-.106.1c-.137.127-.278.25-.425.365l-.017.015c-.114.089-.231.173-.35.254.206-.092.407-.189.6-.3.031-.017.059-.038.089-.055"/><path class="a" d="M803.158,1536.749c.125-.082.248-.167.368-.258.058-.046.113-.093.17-.139s.108-.091.161-.138c-.192.125-.388.244-.59.355-.084.1-.172.191-.263.28l.036-.02c.04-.025.078-.053.118-.08"/><path class="a" d="M807.651,1529.253c-.006.231-.015.458-.027.677,0,.041-.005.08-.007.12-.005.079-.009.159-.014.237,0-.031.008-.06.011-.092.007-.062.014-.123.02-.185.011-.112.021-.227.03-.341.005-.062.009-.124.014-.188.007-.122.014-.245.018-.37,0-.057.006-.113.008-.17.006-.183.009-.365.009-.552,0-.243,0-.488-.015-.728-.013-.112-.034-.223-.051-.334v.047c.01.321.016.649.016.988,0,.255,0,.5-.009.742,0,.049,0,.1,0,.149"/><path class="a" d="M804.457,1519.6c-.084-.055-.172-.107-.259-.158-.04-.024-.078-.049-.119-.071-.082-.046-.168-.087-.254-.129-.051-.026-.1-.052-.148-.076-.08-.036-.163-.068-.246-.1-.061-.025-.12-.051-.182-.075l-.011,0,.039.024c.124.07.246.144.365.221.184.084.365.174.544.267l.177.1c.117.064.233.13.347.2l.061.034c-.067-.052-.137-.1-.206-.15-.037-.025-.071-.053-.108-.077"/><path class="a" d="M793.668,1520.481c-.105.117-.207.241-.305.369l-.044.06c-.092.124-.18.252-.265.386l-.016.026c-.066.106-.126.218-.187.331.114-.141.231-.279.353-.414.194-.212.4-.418.608-.608q.084-.1.168-.2c.149-.165.3-.321.463-.469l.011-.011c-.017.011-.035.019-.052.03s-.06.038-.09.057c-.222.14-.438.286-.644.441"/><path class="a" d="M792.405,1522.626c.072-.076.144-.152.217-.224.055-.055.111-.11.168-.164.021-.044.046-.087.068-.131.049-.1.1-.2.149-.292.033-.06.07-.118.1-.177.048-.08.093-.16.142-.238l0-.006c-.078.087-.152.177-.227.267-.047.057-.1.112-.142.17-.127.159-.247.322-.361.486-.041.1-.082.2-.122.309"/><path class="a" d="M791.931,1532.366c0,.023.008.044.013.065.04.2.082.4.129.583l0,.016c.017.026.036.053.053.08v-.005c-.022-.121-.04-.244-.057-.369-.05-.12-.1-.244-.141-.37"/><path class="a" d="M792.067,1524.448a9.834,9.834,0,0,0-.32,1.094,24.665,24.665,0,0,0-.148,2.821,24.211,24.211,0,0,0,.163,2.937c.052.219.112.433.178.643.013.041.025.082.038.121s.025.066.035.1v-.034c-.017-.243-.027-.489-.027-.74v-5.265c0-.172,0-.341.012-.509,0-.055.007-.108.01-.162.007-.114.015-.227.025-.339.005-.061.012-.122.019-.182.012-.106.026-.211.041-.315.008-.057.016-.115.026-.172,0-.03.008-.062.013-.093-.021.033-.044.065-.064.1"/><path class="a" d="M792.168,1523.353c-.012.043-.023.086-.035.129-.026.094-.051.19-.075.287l-.036.152c-.022.1-.043.2-.064.3-.01.047-.021.094-.03.141,0,.021-.007.042-.011.062l.024-.038a8.881,8.881,0,0,1,.4-.932c0-.014.009-.028.013-.042.049-.169.1-.336.165-.5.019-.051.038-.1.058-.152s.039-.109.061-.162c-.118.121-.236.245-.349.375-.04.125-.079.253-.116.383"/><path class="a" d="M803.186,1519.206c.087.042.175.083.26.128.068.036.134.074.2.111s.161.091.24.14c.023.013.045.024.067.038l-.011-.008c-.121-.094-.245-.182-.37-.265l-.162-.071c-.1-.042-.206-.075-.309-.114.029.013.056.028.084.041"/><path class="a" d="M794.9,1519.472l-.054.035q-.234.146-.449.31l-.039.03.026-.015c.219-.132.44-.258.668-.373.129-.1.262-.184.4-.271a.153.153,0,0,0,.021-.014l-.042.02a5.625,5.625,0,0,0-.528.278"/><path class="a" d="M802.988,1519.267l.037.024c.069.041.135.085.2.128s.108.069.16.106c.07.048.138.1.206.152.047.036.1.07.141.108.075.059.148.124.221.187l.112.1c.107.1.211.2.313.3.02.013.038.03.058.043.142.092.278.192.412.3l.113.09c.15.122.3.248.434.383.018.018.035.037.053.054.071.072.142.143.211.217l-.009-.014c-.06-.09-.126-.177-.191-.265-.039-.053-.075-.108-.115-.159-.107-.138-.218-.273-.335-.4l-.088-.1c-.024-.021-.051-.04-.076-.061q-.168-.146-.343-.279c-.056-.043-.114-.083-.171-.124-.09-.065-.18-.129-.271-.19-.062-.041-.125-.08-.188-.12-.092-.056-.184-.111-.277-.164l-.187-.1q-.156-.081-.315-.156c-.036-.016-.071-.034-.106-.05"/><path class="a" d="M797.149,1518.638l-.052.012c-.2.042-.4.089-.595.142a.474.474,0,0,1-.045.021c-.148.064-.294.134-.438.209l-.047.025c.147-.059.3-.112.446-.162l.031-.01c.206-.068.414-.127.623-.182l.143-.036c.189-.046.38-.088.573-.123l-.033,0c-.208.028-.411.06-.606.1"/><path class="a" d="M795.124,1519.577l-.059.046c-.111.084-.221.174-.33.268-.014.011-.027.024-.041.036.086-.06.174-.116.262-.173l.035-.024c.133-.082.266-.162.4-.237l.069-.036c.108-.058.218-.116.33-.169.045-.022.09-.042.135-.062l.072-.034c-.077.03-.155.055-.231.087-.221.094-.437.194-.644.3"/><path class="a" d="M798.916,1541.3c-.036-.02-.077-.04-.112-.061l-.067.005-.053,0h-.013l-.082.007-1.05.08-.107.008h0l-.02,0-.011,0-.042.006-.018,0-.031.005-.034.005-.106.083-.009.008-.115.091-.45.358.122-.009c.04,0,.082-.006.126-.01.013,0,.024,0,.037,0,.392-.033.861-.082,1.4-.144.306-.036.63-.076.957-.119l.133-.018.136-.017c-.166-.073-.322-.149-.47-.229l-.113-.061"/><path class="a" d="M796.352,1541.562c-.021,0-.041.01-.061.015l-.041.009-.036.009-.029.007-.03.008-.037.006a.262.262,0,0,0-.016.061l0,.016a.352.352,0,0,0-.007.056l0,.018a.36.36,0,0,0,.011.083.31.31,0,0,0,.126.171l.055-.044.033-.026.04-.032.38-.3.122-.1.035-.028.085-.067c-.037.007-.075.013-.11.021-.19.039-.36.078-.519.116"/><path class="a" d="M796.062,1541.454l-.2.016-.007.074a1.5,1.5,0,0,1,.18-.053c.02,0,.04-.01.061-.013h0l.032-.006.008,0,.135-.032-.117.009Z"/><path class="a" d="M801.886,1543.109c.132-.018.265-.035.4-.056h.019l.628-.05.146-.011.088-.007.076-.005c-.006-.012-.012-.021-.018-.031a.275.275,0,0,0-.057-.061.256.256,0,0,0-.047-.038.188.188,0,0,0-.057-.005c-.087,0-.275.014-.558.041l-.457.048-.071.078-.036.041,0,0a.174.174,0,0,1-.084.042h0l-.053.006c-.035.005-.071.008-.107.012l-.024.028.109-.016.108-.016"/><path class="a" d="M800.329,1543.486l-.249-.051-.035-.007-.107.005c-.067,0-.132,0-.2.005-.086,0-.173.006-.258.006l-.072,0c-.083,0-.167,0-.249,0l-.128.009-.2.026-.367.046-1.046.132q-.774.1-1.35.173h0l-.055.007,4.584-.292Z"/><path class="a" d="M795.686,1541.782a1.165,1.165,0,0,0-.211.168h0c-.016.017-.033.031-.048.049h0c-.015.017-.034.03-.049.048.018.016.037.029.054.044h0c.017.016.035.029.053.044h0c.049.043.1.084.151.124l.008-.083.01-.083.015-.142.01-.085Z"/><path class="a" d="M801.705,1542.972l.026,0,.04,0,.066-.008.046-.05.026-.028.022-.025.05-.054.506-.555.046-.05.023-.024.022-.025.046-.05-.068.005-.033,0-.034,0-.019,0h-.046c-.114.005-.227.008-.336.008s-.236,0-.349-.008a6.33,6.33,0,0,1-1.709-.3c-.049-.016-.1-.033-.145-.051l-.015-.005-.063-.023-.062-.022-.066.008-.068.009h0l-.13.016c-.416.057-.816.108-1.189.151-.555.064-1.02.112-1.4.144l-.244.019-.1.006h-.022l-.056,0h-.062l-.052.042-.033.026-.019.015-.056.045-.231.184-.059.046-.057.046.062.039.062.041.054.033.056.036.057.036.249.051.251.05,2.463.5.069.014.065.013.067-.008c.023,0,.046-.007.07-.009l1.667-.212.534-.065.08-.009"/><path class="a" d="M798.449,1543.382l.067-.009.069-.009c.089-.01.181-.022.27-.034l-.027-.005-.31-.062-.3-.062-.532-.108-.664-.134-.376-.076a5.987,5.987,0,0,0,1.7.48c.036.006.071.014.109.019"/><path class="a" d="M795.828,1541.764v.018l-.005.05,0,.034-.036.335,0,.032-.005.052,0,.015-.007.068.024.016a.168.168,0,0,1,.024-.03l.016-.013.009-.007h0l.045-.035.012-.01.021-.017.206-.164a.457.457,0,0,1-.15-.218c-.005-.016-.006-.032-.01-.048s-.006-.024-.008-.035,0-.024,0-.036,0-.023,0-.036a.475.475,0,0,1,.008-.074c-.016.006-.033.01-.049.015l-.007,0a.65.65,0,0,0-.066.019Z"/><path class="a" d="M803.446,1541.056a.111.111,0,0,1,.026.006.123.123,0,0,1,.066.031l.054-.058.035-.039.053-.058-.135-.005-.412-.015-.051,0a.109.109,0,0,1-.014.049l-.007.014a.136.136,0,0,1-.1.065h-.01l-3.062.247-.6.046c.159.079.317.151.477.213l.3-.042q.966-.137,1.835-.251l1.462-.2.053-.008h.028Z"/><path class="a" d="M801.3,1540.851l.1,0,.155.006.04,0h.07l.069,0,.073,0,.621-.039.438-.028.134-.009.127-.008.837-.053.113-.008h.135c0-.006.014-.077.024-.147a1.533,1.533,0,0,0,.016-.153c-.067,0-.277.006-.368.013-.288.022-.6.055-.935.1s-.663.094-.982.142l-.35.05-.068.01-.068.008h0l-.063.014-.069.013c-.113.024-.225.048-.341.07h.039Z"/><path class="a" d="M804.14,1540.961h0a.128.128,0,0,1,.031.006l0-.012c.009-.037.016-.071.024-.1l-.073,0-.071.005h-.029l-.005.115h.01l.07-.01.018,0h0l.015,0h.005Z"/><path class="a" d="M804.012,1541.158l0,.03,0,.071,0,.08-.014.3c.008-.025.016-.053.023-.077.034-.111.062-.213.089-.311l0-.014.015-.06,0-.01.017-.062-.068.008h-.007l-.052.008v.04"/><path class="a" d="M803.879,1540.291c.136-.011.242-.016.326-.016h.052c-.023-.206-.085-.326-.188-.357a.39.39,0,0,0-.1-.015.42.42,0,0,0-.07.006.582.582,0,0,0-.161.054l-.174.093a2.743,2.743,0,0,1-.817.364l.19-.027c.349-.049.657-.083.944-.1"/><path class="a" d="M801.418,1543.209l.049-.055h0l.014-.015-.374.045-.959.123.19.038,1.028-.081Z"/><path class="a" d="M800.854,1543.446l.281.057h.016l.078-.085Z"/><path class="a" d="M795.783,1543.58a.294.294,0,0,0,.08.06.37.37,0,0,0,.182.046h.007l.064-.008.073-.01,1.214-.155.119-.014.449-.057c-.064-.012-.13-.02-.192-.034a5.679,5.679,0,0,1-1.66-.639h0c-.083-.049-.163-.1-.241-.153-.018-.013-.039-.024-.057-.036h0l-.008-.006-.066-.047-.074.691a.579.579,0,0,0,.01.181.42.42,0,0,0,.1.181"/><path class="a" d="M803.657,1542.641l0,.011c-.014.037-.029.067-.042.1l-.025.06c-.015.035-.029.073-.043.106l-.013.03.019,0,0,0,.062-.014h0l.065-.016a.808.808,0,0,0,.047-.082c0-.01.009-.016.013-.025s.019-.03.027-.047l0-.011c.005-.015.009-.032.014-.05a.869.869,0,0,0,.021-.125l.006-.147.012-.247c-.023.072-.053.149-.08.223s-.054.154-.086.237"/><path class="a" d="M803.826,1542.042h0v-.021l0-.033v0l0-.068h-.005l-.06.009h0l-.015,0c-.018,0-.036.006-.054.009l-.3.048c-.219.037-.409.065-.572.086-.024,0-.643.7-.643.7.106-.012.207-.021.3-.031.291-.028.478-.042.572-.042a.252.252,0,0,1,.123.022.439.439,0,0,1,.2.227l0,0v.005h0a.134.134,0,0,1,.012-.071,3.1,3.1,0,0,0,.123-.3c.062-.16.117-.311.162-.45h0a.173.173,0,0,1,.014-.031.133.133,0,0,1,.031-.035v0a.14.14,0,0,1,.054-.024h0l.007,0h.026Z"/><path class="a" d="M803.336,1541.211l-.024,0-.084.012c-.386.053-.819.112-1.306.176-.579.076-1.191.161-1.834.251l-.031,0,.15.05c.052.015.1.034.156.049a6.526,6.526,0,0,0,1.725.219c.123,0,.248,0,.377-.01.028,0,.062,0,.093-.006l.051,0h0l.049-.005.1-.011.531-.583.056-.062.018-.019.028-.031.045-.049h0l-.063.008-.043.006"/><path class="a" d="M804.275,1541.871l-.071.005-.146.014-.075.009h-.007v.022l0,.017v.033l0,.055v.015l-.007.137v0l0,.021-.018.386a.921.921,0,0,1-.018.12.588.588,0,0,1-.023.08c0,.008-.005.019-.008.027s-.022.036-.032.055a.246.246,0,0,0,.026-.006c.11-.029.208-.059.3-.089l.065-.021c.021-.008.044-.015.065-.021v-.07l0-.07.018-.587,0-.071v-.07h0c-.02,0-.045,0-.066.005"/><path class="a" d="M803.262,1543.256l.008-.02a.291.291,0,0,0,.012-.051.223.223,0,0,0,0-.037h0c0-.011,0-.022,0-.033h-.019l-.087.008-.227.017-.507.04-.07.005-.068,0-.069.01-.069.01c-.143.023-.288.042-.431.061l-.109.016-.1.014h-.006l-.02.022-.022.024,0,0-.043.047,0,0-.082.09,1.276-.082h.011a.136.136,0,0,1,.114.062.149.149,0,0,1,.02.047c.048-.008.1-.019.141-.03.025-.007.055-.01.079-.018l.017-.006a.21.21,0,0,0,.033-.012.546.546,0,0,0,.088-.042.3.3,0,0,0,.12-.116.2.2,0,0,0,.014-.039"/><path class="a" d="M803.71,1543.052l-.014,0-.135.032h0l-.121.027-.016.023a.46.46,0,0,1-.051.223.431.431,0,0,1-.138.151l1.063-.068.017-.562c-.117.04-.246.08-.392.119l-.212.052"/><path class="a" d="M802.112,1543.606c.15-.012.3-.028.453-.047l.071-.009-1.284.081-.072.005-.022,0h0l-.045,0h-.025l-.042,0h-.024l-.043,0-.024,0-.071,0-.626.039-5.178.33,0-.092h0l0-.069v0l0-.069-.036,0a.23.23,0,0,0-.029,0h0a.243.243,0,0,0-.066.014l-.005,0a.32.32,0,0,0-.169.157.328.328,0,0,0-.022.278.364.364,0,0,0,.168.2.349.349,0,0,0,.127.014q.123,0,.354-.021c.282-.025.635-.062,1.056-.114l.293-.036.07-.008c.023,0,.045-.007.069-.009s.046-.006.069-.009l.068-.009.02,0,.07-.009.069-.008c.022,0,.046-.005.069-.009s.046-.005.068-.009l.486-.062,1.38-.18c.411-.053.77-.1,1.084-.15l.072-.011c.264-.041.453-.068.573-.082l.08-.01.012,0,.042-.006.077-.011.013,0,.021,0,.076-.011.418-.064c.085-.005.2-.012.352-.025"/><path class="a" d="M804.485,1541.873l0,.01-.023.794c.317-.131.473-.267.466-.407-.011-.247-.163-.374-.441-.4"/><path class="a" d="M804.513,1540.924a.368.368,0,0,0,.025-.036.316.316,0,0,0,.021-.251.321.321,0,0,0-.158-.2h0c-.014-.006-.025.483-.025.483l0,.07,0,.068a.286.286,0,0,0,.055-.038l.016-.01a.432.432,0,0,0,.037-.037c.013-.015.024-.032.036-.049"/><path class="a" d="M804.251,1541.226c-.031.114-.064.235-.1.373l-.045.145c.083-.007.158-.014.225-.017h.023l.016-.523a.5.5,0,0,1-.064.017l-.05.006"/><path class="a" d="M795.322,1541.907l.007-.008c.015-.016.03-.035.046-.052l.02-.019a1.247,1.247,0,0,1,.319-.223l.015-.15a.135.135,0,0,1,.028-.066.142.142,0,0,1,.1-.059l.435-.033h.008l.925-.066.115-.083-2.069.132-.016.505,0,.07,0,.069.03.029c.013-.016.027-.03.04-.045"/><path class="a" d="M798.72,1541.031l.082-.011c.531-.056,1.047-.124,1.544-.2l-2.268-.083,0,0a2.532,2.532,0,0,1,.516.216c.036.02.129.08.129.08"/><path class="a" d="M799.668,1541.056l-.125.017c-.025,0-.052.005-.077.009-.179.023-.359.044-.544.065l.025.014.041.021c.024.015.049.026.073.039l.812-.063,1.877-.151.064-.005-.066,0h-.015l-.577-.022-.152-.006a.141.141,0,0,1-.1-.044h0l-.01-.014-.182.013-.207.013-.15.009c-.119.019-.246.036-.369.054-.107.015-.211.032-.322.047"/><path class="a" d="M797.711,1541.113l0,.011.106-.007.42-.027.141-.009.142-.009a2.373,2.373,0,0,0-.446-.19l-.066-.022c-.023-.006-.044-.016-.066-.022l-.054.043-.053.042-.154.124a.136.136,0,0,1,.028.066"/><path class="a" d="M803.876,1541.069v0l0-.067v0l.006-.126-.083.006.007.009a.084.084,0,0,1,0,.027l0,.011,0,.054a.173.173,0,0,1-.016.031.112.112,0,0,1-.012.025l0,0a.088.088,0,0,0-.019.02l-.027.029v0l-.074.08.072-.01h.005l.065-.009h.005l.066-.009Z"/><path class="a" d="M795.283,1543.69c.006.006.009.014.014.02a.152.152,0,0,1,.027.067h0l.4-.05a.4.4,0,0,1-.059-.063.406.406,0,0,1-.055-.062.649.649,0,0,1-.07-.165.7.7,0,0,1-.015-.233l.084-.777c-.073-.055-.143-.115-.213-.174-.013-.012-.028-.023-.041-.034l-.013-.012c-.018-.015-.036-.028-.054-.044l-.01.013c-.007.012-.012.024-.019.034s-.023.038-.034.058v.07l0,.069-.037,1.244v0a.124.124,0,0,1,.069.023.168.168,0,0,1,.022.014"/><path class="a" d="M797.762,1540.805a2.993,2.993,0,0,0-.555-.057,4.852,4.852,0,0,0-1.759.38l2.074-.132Z"/><path class="a" d="M794.957,1544.578a.515.515,0,0,1-.233-.279.472.472,0,0,1,.031-.391.447.447,0,0,1,.3-.242l.034-1.116a3.651,3.651,0,0,0-.223.559,3.963,3.963,0,0,0-.1.434c-.025.147-.041.268-.05.363-.02.129-.034.241-.043.334a.465.465,0,0,0,.053.306.334.334,0,0,0,.17.111.448.448,0,0,0,.133.019.632.632,0,0,0,.1-.008.4.4,0,0,0,.131-.049l.044-.015c-.055,0-.1,0-.144,0a.407.407,0,0,1-.194-.03"/><path class="a" d="M795.124,1541.275l0-.007c-.2.1-.32.165-.32.165.1.122.2.238.3.348Z"/><path class="a" d="M803.836,1541.777h.007l.007-.166.016-.333-.07.01-.071.009c-.065.008-.137.019-.212.03l-.532.583c.12-.017.253-.038.4-.063.116-.02.221-.037.321-.052l.07-.01.027,0,.014,0,.02,0Z"/><path class="a" d="M816.582,1526.27c-2.408,0-3.628,1.364-3.628,4.057a4.526,4.526,0,0,0,.878,3.02,3.461,3.461,0,0,0,2.75,1.047,3.424,3.424,0,0,0,2.733-1.047,5.652,5.652,0,0,0,0-6.026A3.418,3.418,0,0,0,816.582,1526.27Zm0,7.685c-2.159,0-3.165-1.153-3.165-3.628s1.006-3.606,3.165-3.606a2.951,2.951,0,0,1,2.4.912,4.06,4.06,0,0,1,.75,2.694,4.106,4.106,0,0,1-.75,2.713A2.944,2.944,0,0,1,816.582,1533.955Z"/><path class="a" d="M827.159,1531.3a2.524,2.524,0,1,1-5.045,0v-4.81h-.454v4.8a2.977,2.977,0,1,0,5.953,0v-4.8h-.454Z"/><rect class="a" width="0.454" height="7.726" transform="translate(829.406 1526.487)"/><path class="a" d="M837.143,1533.458l-4.971-6.948-.017-.023H831.7v7.726h.455v-6.959c1.632,2.272,3.317,4.619,4.971,6.936l.016.023h.452v-7.726h-.454Z"/><path class="a" d="M838.814,1526.917h2.861v7.3h.454v-7.3h2.849v-.429h-6.164Z"/><path class="a" d="M846.206,1534.213h4.74v-.429h-4.286v-3.267h3.782v-.431h-3.782v-3.169h4.286v-.429h-4.74Z"/><path class="a" d="M854.818,1529.987c-1.056-.276-2.055-.538-2.055-1.59,0-1,.756-1.59,2.021-1.59a5.244,5.244,0,0,1,2.1.461l.077.034v-.464l-.033-.014a5.313,5.313,0,0,0-2.183-.459,2.666,2.666,0,0,0-1.85.6,1.889,1.889,0,0,0-.587,1.43c0,1.4,1.2,1.706,2.355,2.005s2.225.572,2.225,1.828a1.454,1.454,0,0,1-.556,1.179,2.7,2.7,0,0,1-1.686.473,5.36,5.36,0,0,1-2.333-.51l-.08-.039v.493l.034.015a5.925,5.925,0,0,0,2.392.483,3.018,3.018,0,0,0,2.045-.624,1.887,1.887,0,0,0,.638-1.47C857.344,1530.65,856,1530.3,854.818,1529.987Z"/><path class="a" d="M861.179,1529.987c-1.056-.276-2.054-.538-2.054-1.59,0-1,.755-1.59,2.02-1.59a5.245,5.245,0,0,1,2.1.461l.078.034v-.464l-.034-.014a5.313,5.313,0,0,0-2.183-.459,2.67,2.67,0,0,0-1.851.6,1.892,1.892,0,0,0-.586,1.43c0,1.4,1.2,1.706,2.355,2.005s2.225.572,2.225,1.828a1.454,1.454,0,0,1-.556,1.179,2.7,2.7,0,0,1-1.685.473,5.361,5.361,0,0,1-2.334-.51l-.079-.039v.493l.033.015a5.924,5.924,0,0,0,2.392.483,3.02,3.02,0,0,0,2.046-.624,1.89,1.89,0,0,0,.637-1.47C863.705,1530.65,862.364,1530.3,861.179,1529.987Z"/><path class="a" d="M871.4,1534.137c-.619-1.481-1.243-2.992-1.847-4.454-.429-1.036-.871-2.107-1.31-3.162l-.013-.034h-.405l-.015.034-.927,2.236c-.73,1.767-1.486,3.592-2.241,5.379l-.032.077h.5l1.007-2.468h3.807c.144.348.289.7.43,1.046.187.458.381.932.575,1.389l.014.033h.488Zm-1.644-2.822H866.3l1.723-4.186Z"/><path class="a" d="M817.726,1535.187l-2.319,0,.121.371,2.335.045Z"/><rect class="b" width="84.996" height="66.297" transform="translate(788.149 1498.161)"/></g></svg>