<svg xmlns="http://www.w3.org/2000/svg" width="150" viewBox="0 0 225 42.821"><defs><style>.a{fill:#fff;}.b{fill:#0cd7fb;}.c{fill:#135df5;}</style></defs><g transform="translate(-135 -49)"><g transform="translate(135 49)"><path class="a" d="M866.805,469.934l-11.8,11.8-5.34-5.34a11.561,11.561,0,0,0-16.107-.344,11.435,11.435,0,0,0-.2,16.346l13.568,13.569a11.422,11.422,0,0,0,16.153,0l2.908-2.908,17.122-17.123a11.435,11.435,0,0,0-.2-16.346A11.562,11.562,0,0,0,866.805,469.934Z" transform="translate(-830.02 -466.49)"/><g transform="translate(2.279 2.23)"><g transform="translate(0 6.461)"><path class="b" d="M855.88,516.586l.03.029a4.55,4.55,0,0,0,6.435,0l.982-.983a4.554,4.554,0,0,1,3.231-1.337,4.5,4.5,0,0,1,2.231.584,4.449,4.449,0,0,1,1,.753,4.571,4.571,0,0,1,0,6.461L866.881,525a9.14,9.14,0,0,1-12.922,0L840.39,511.433a9.137,9.137,0,0,1,12.922-12.922l7.108,7.107-4.536,4.536A4.547,4.547,0,0,0,855.88,516.586Z" transform="translate(-837.714 -495.833)"/></g><path class="c" d="M926.912,476.7a9.138,9.138,0,0,1,0,12.923l-17.121,17.122a4.569,4.569,0,0,0,0-6.461,4.444,4.444,0,0,0-1-.753,4.5,4.5,0,0,0-2.232-.585,4.554,4.554,0,0,0-3.231,1.337l-.982.982a4.551,4.551,0,0,1-6.435,0l-.029-.029a4.547,4.547,0,0,1,0-6.432l18.1-18.105A9.135,9.135,0,0,1,926.912,476.7Z" transform="translate(-877.717 -474.02)"/></g></g><g transform="translate(198.571 56.09)"><path class="a" d="M1044.638,536.585a4.131,4.131,0,0,1,2.156-4.007,13.777,13.777,0,0,1,6.254-1.132h1.581v-.662a4.537,4.537,0,0,0-.88-2.8,3.128,3.128,0,0,0-2.677-1.178,5.92,5.92,0,0,0-2.714.593,8.884,8.884,0,0,1-1.276.593,1.134,1.134,0,0,1-.989-.593,2.389,2.389,0,0,1-.377-1.311q0-.935,1.743-1.618a10.028,10.028,0,0,1,3.684-.683q3.7,0,5.48,1.995a7.2,7.2,0,0,1,1.779,4.978v9.02a1.081,1.081,0,0,1-.521.88,2.184,2.184,0,0,1-1.313.378,1.978,1.978,0,0,1-1.221-.378,1.085,1.085,0,0,1-.5-.88v-1.258a7.056,7.056,0,0,1-5.426,2.8,4.91,4.91,0,0,1-3.432-1.222A4.509,4.509,0,0,1,1044.638,536.585Zm3.809-.467a2.248,2.248,0,0,0,.647,1.743,2.4,2.4,0,0,0,1.689.593,3.8,3.8,0,0,0,2.605-1.151,3.335,3.335,0,0,0,1.239-2.443v-1.33h-.9a19.787,19.787,0,0,0-2.642.144,3.892,3.892,0,0,0-1.833.755A2,2,0,0,0,1048.447,536.118Z" transform="translate(-1044.638 -513.908)"/><path class="a" d="M1100.933,534.177v-3.234a7.224,7.224,0,0,1,1.869-5.175,7.311,7.311,0,0,1,5.57-1.977,8.552,8.552,0,0,1,3.918.808q1.58.809,1.581,1.815a2.053,2.053,0,0,1-.449,1.222,1.3,1.3,0,0,1-1.06.611,5.874,5.874,0,0,1-1.275-.54,5.422,5.422,0,0,0-2.426-.539q-3.954,0-3.953,3.784v3.213q0,3.784,3.989,3.784a5.216,5.216,0,0,0,2.461-.575,5.179,5.179,0,0,1,1.312-.575,1.414,1.414,0,0,1,1.168.575,1.948,1.948,0,0,1,.449,1.222q0,1.006-1.653,1.869a8.613,8.613,0,0,1-4.025.863q-3.738,0-5.606-1.958A7.211,7.211,0,0,1,1100.933,534.177Z" transform="translate(-1084.259 -513.908)"/><path class="a" d="M1150.433,534.177v-3.306a6.686,6.686,0,0,1,2.194-4.959,7.278,7.278,0,0,1,5.246-2.12,7.353,7.353,0,0,1,5.21,2.1,6.62,6.62,0,0,1,2.229,4.978v3.306a6.751,6.751,0,0,1-2.246,4.978,7.332,7.332,0,0,1-10.4.018A6.752,6.752,0,0,1,1150.433,534.177Zm3.774-.01a3.752,3.752,0,0,0,1.078,2.624,3.446,3.446,0,0,0,5.157,0,3.725,3.725,0,0,0,1.1-2.624v-3.285a3.625,3.625,0,0,0-1.1-2.57,3.481,3.481,0,0,0-5.157,0,3.651,3.651,0,0,0-1.078,2.57Z" transform="translate(-1119.096 -513.908)"/><path class="a" d="M1210.612,539.784V525.228a1.018,1.018,0,0,1,.521-.88,2.341,2.341,0,0,1,1.311-.341,2.1,2.1,0,0,1,1.222.346,1.042,1.042,0,0,1,.5.891v1.6a5.673,5.673,0,0,1,1.851-2.161,4.558,4.558,0,0,1,2.713-.89h1.15a1.305,1.305,0,0,1,1.006.491,1.727,1.727,0,0,1,.432,1.18,1.8,1.8,0,0,1-.432,1.2,1.288,1.288,0,0,1-1.006.508h-1.15a3.972,3.972,0,0,0-3.036,1.47,5.49,5.49,0,0,0-1.312,3.8v7.348a1.084,1.084,0,0,1-.574.861,2.359,2.359,0,0,1-1.366.394,2.1,2.1,0,0,1-1.311-.4A1.1,1.1,0,0,1,1210.612,539.784Z" transform="translate(-1161.45 -513.908)"/><path class="a" d="M1249.436,510.7V507.39a7.186,7.186,0,0,1,1.888-5,5.917,5.917,0,0,1,4.545-2.084,5.011,5.011,0,0,1,2.8.8,5.587,5.587,0,0,1,1.869,1.962V491.648a1.014,1.014,0,0,1,.539-.88,2.509,2.509,0,0,1,1.366-.341,2.424,2.424,0,0,1,1.347.341,1.02,1.02,0,0,1,.521.88V516.3a1.092,1.092,0,0,1-.539.861,2.192,2.192,0,0,1-1.329.395,1.92,1.92,0,0,1-1.2-.4,1.119,1.119,0,0,1-.522-.874v-1.273a4.94,4.94,0,0,1-1.959,2,5.662,5.662,0,0,1-7.421-1.339A7.335,7.335,0,0,1,1249.436,510.7Zm3.774-.01a3.751,3.751,0,0,0,1.079,2.624,3.369,3.369,0,0,0,2.551,1.16,3.63,3.63,0,0,0,2.551-1.089,2.942,2.942,0,0,0,1.15-1.875V507.4a3.49,3.49,0,0,0-1.113-2.678,3.646,3.646,0,0,0-2.552-1.035,3.452,3.452,0,0,0-2.57,1.143,3.624,3.624,0,0,0-1.1,2.57Z" transform="translate(-1188.773 -490.427)"/><path class="a" d="M1309.612,534.177v-3.306a6.691,6.691,0,0,1,2.192-4.959,7.531,7.531,0,0,1,10.458-.018,6.623,6.623,0,0,1,2.227,4.978v3.306a6.748,6.748,0,0,1-2.246,4.978,7.331,7.331,0,0,1-10.4.018A6.748,6.748,0,0,1,1309.612,534.177Zm3.774-.01a3.757,3.757,0,0,0,1.078,2.624,3.445,3.445,0,0,0,5.157,0,3.723,3.723,0,0,0,1.1-2.624v-3.285a3.623,3.623,0,0,0-1.1-2.57,3.48,3.48,0,0,0-5.157,0,3.656,3.656,0,0,0-1.078,2.57Z" transform="translate(-1231.125 -513.908)"/><path class="a" d="M1368.7,534.55V530.7a6.9,6.9,0,0,1,1.761-4.906,6.739,6.739,0,0,1,5.175-1.887,7.639,7.639,0,0,1,3.611.773q1.456.773,1.456,1.563a1.18,1.18,0,0,1-.324.773.937.937,0,0,1-.718.377,1.408,1.408,0,0,1-.665-.315,6.5,6.5,0,0,0-1.276-.646,5.29,5.29,0,0,0-1.976-.333,4.722,4.722,0,0,0-3.5,1.215,4.617,4.617,0,0,0-1.2,3.4v3.824a4.665,4.665,0,0,0,1.2,3.431,4.771,4.771,0,0,0,3.54,1.215,5.661,5.661,0,0,0,2.067-.332,5.794,5.794,0,0,0,1.293-.665,1.37,1.37,0,0,1,.7-.332.973.973,0,0,1,.773.359,1.2,1.2,0,0,1,.305.79q0,.828-1.509,1.6a8.148,8.148,0,0,1-3.738.773,6.822,6.822,0,0,1-5.211-1.869A6.935,6.935,0,0,1,1368.7,534.55Z" transform="translate(-1272.709 -513.994)"/><path class="a" d="M1416.622,534.55v-4.025a6.27,6.27,0,0,1,2.012-4.654,6.945,6.945,0,0,1,9.577-.088,6.144,6.144,0,0,1,1.994,4.677,4.618,4.618,0,0,1-.233,1.613,1.5,1.5,0,0,1-.755.86,3.589,3.589,0,0,1-.951.323,7.651,7.651,0,0,1-1.187.071h-8.121v1.33a4.2,4.2,0,0,0,1.526,3.4,5.932,5.932,0,0,0,3.936,1.276,5.838,5.838,0,0,0,2.138-.359,6.159,6.159,0,0,0,1.4-.719,1.483,1.483,0,0,1,.774-.359.888.888,0,0,1,.7.378,1.187,1.187,0,0,1,.306.736q0,.755-1.545,1.564a8.233,8.233,0,0,1-3.845.809,8.15,8.15,0,0,1-5.57-1.887A6.251,6.251,0,0,1,1416.622,534.55Zm2.336-2.947h7.187a2.956,2.956,0,0,0,1.438-.232,1.1,1.1,0,0,0,.36-.982,4.45,4.45,0,0,0-1.276-3.143,4.224,4.224,0,0,0-3.215-1.357,4.375,4.375,0,0,0-3.181,1.286,4.151,4.151,0,0,0-1.311,3.071Z" transform="translate(-1306.439 -513.994)"/><path class="a" d="M1473.158,540.193v-15.2a.753.753,0,0,1,.323-.611,1.311,1.311,0,0,1,.827-.252,1.237,1.237,0,0,1,.79.255.765.765,0,0,1,.324.619v1.784a5.679,5.679,0,0,1,1.905-2.037,5.13,5.13,0,0,1,2.91-.837h1.257a.849.849,0,0,1,.647.329,1.167,1.167,0,0,1,0,1.535.848.848,0,0,1-.647.328h-1.257a4.523,4.523,0,0,0-3.306,1.452,5.144,5.144,0,0,0-1.438,3.782v8.856a.833.833,0,0,1-.341.645,1.263,1.263,0,0,1-.844.286,1.211,1.211,0,0,1-.809-.287A.835.835,0,0,1,1473.158,540.193Z" transform="translate(-1346.23 -513.994)"/><path class="a" d="M1511.859,517.236V498.324a.732.732,0,0,1,.36-.61,1.351,1.351,0,0,1,.791-.252,1.417,1.417,0,0,1,.827.25.731.731,0,0,1,.359.608v7.191h4.635a.729.729,0,0,1,.594.294,1.153,1.153,0,0,1,0,1.391.729.729,0,0,1-.594.292H1514.2v9.694a3.278,3.278,0,0,0,.737,2.442,3.8,3.8,0,0,0,2.605.695h1.008a1.028,1.028,0,0,1,.772.316,1.057,1.057,0,0,1,.3.761,1.124,1.124,0,0,1-.3.781,1,1,0,0,1-.772.334h-1.008Q1511.86,522.512,1511.859,517.236Z" transform="translate(-1373.467 -495.379)"/><path class="a" d="M1543.527,534.55v-3.918a6.429,6.429,0,0,1,2.013-4.726,6.56,6.56,0,0,1,4.78-1.995,6.712,6.712,0,0,1,4.815,1.977,6.359,6.359,0,0,1,2.048,4.744v3.918a6.829,6.829,0,0,1-13.656,0Zm2.336-.011a4.613,4.613,0,0,0,1.311,3.235,4.144,4.144,0,0,0,3.145,1.411,4.239,4.239,0,0,0,3.2-1.411,4.586,4.586,0,0,0,1.33-3.235v-3.9a4.412,4.412,0,0,0-1.348-3.145,4.282,4.282,0,0,0-3.18-1.394,4.169,4.169,0,0,0-3.145,1.394,4.472,4.472,0,0,0-1.311,3.145Z" transform="translate(-1395.754 -513.994)"/></g></g></svg>