<svg width="2315" height="560" xmlns="http://www.w3.org/2000/svg"><g fill="#1B1A19" fill-rule="evenodd"><path d="M191.213 160.604c36.822 0 42.481-33.992 113.295-33.992 46.737 0 79.313 18.416 79.313 50.993 0 28.32-12.746 43.896-38.237 77.882-18.405 24.082-26.916 33.997-26.916 53.829 0 28.32 8.511 33.995 46.748 99.133 21.235 35.406 38.236 66.573 38.236 89.233 0 36.817-22.661 62.318-69.387 62.318-43.917 0-65.154-7.085-92.07-32.576-18.405-18.416-35.417-45.322-50.982-45.322-14.171 0-14.171 8.495-31.161 38.242C151.551 534.499 128.891 560 86.409 560 15.596 560 0 509.008 0 448.111V96.871C0 43.054 24.086.567 87.824.567c49.567 0 83.559 36.822 83.559 83.559 0 22.66 4.245 76.478 19.83 76.478"/><path d="M618.176 411.289c31.162 0 58.068-33.992 58.068-76.482 0-39.663-19.831-75.053-59.482-75.053-31.163 0-58.068 28.32-58.068 76.472 0 42.492 25.491 75.063 59.482 75.063zm7.086 145.881c-152.956 0-233.695-94.894-233.695-222.363 0-133.127 94.899-222.355 225.195-222.355 126.05 0 226.608 87.814 226.608 220.944 0 121.795-82.153 223.774-218.108 223.774zm461.688-145.881c31.15 0 58.07-33.992 58.07-76.482 0-39.663-19.83-75.053-59.5-75.053-31.15 0-58.06 28.32-58.06 76.472 0 42.492 25.49 75.063 59.49 75.063zm7.09 145.881c-152.971 0-233.7-94.894-233.7-222.363 0-133.127 94.889-222.355 225.18-222.355 126.07 0 226.61 87.814 226.61 220.944 0 121.795-82.14 223.774-218.09 223.774zm442.55-132.432c31.16 0 53.82-33.987 53.82-82.139 0-39.657-16.99-80.739-52.41-80.739-26.9 0-52.39 25.506-52.39 76.488 0 58.068 28.32 86.39 50.98 86.39zm-39.66-307.328c11.34 11.33 19.83 11.33 65.16 11.33 50.98 0 75.05 14.161 93.47 24.076 9.91 7.081 21.25 15.576 32.58 25.491 38.23 35.406 56.65 87.819 56.65 157.212 0 133.13-75.07 222.349-182.7 222.349-31.16 0-73.65-11.326-90.65-11.326-7.08 0-18.4 1.41-53.81 1.41-76.49 0-87.81-39.646-87.81-117.539V107.494c0-69.392 32.57-96.309 75.07-96.309 49.55 0 60.89 21.246 77.89 73.648 2.83 9.915 7.07 25.496 14.15 32.577zm441.14 333.531c22.66 0 41.08-19.831 41.08-41.072 0-8.49-4.25-26.911-28.33-26.911-32.56 0-45.32 25.491-45.32 33.997 0 26.9 18.42 33.986 32.57 33.986zm205.37 11.335c0 55.232-26.92 83.559-82.15 83.559l-55.24-4.256c-31.15 0-72.22 14.166-104.79 14.166-82.15 0-145.89-58.063-145.89-128.875 0-29.747 5.67-56.657 12.75-69.403l28.33-41.067c8.5-11.34 11.33-21.256 11.33-26.916-1.42-18.405-24.07-35.406-24.07-70.813 0-66.562 82.14-106.219 164.27-106.219 144.47 0 195.46 48.152 195.46 192.608v157.216zm110.97-302.773c-7.68 6.09-16.86 9.135-27.55 9.135-13.47 0-24.97-4.822-34.52-14.469-9.55-9.644-14.32-22.479-14.32-38.499 0-14.957 4.3-27.456 12.9-37.514 8.62-10.051 19.85-15.082 33.74-15.082 8.73 0 16.6 1.76 23.63 5.272 12.16 6.299 18.77 16.754 19.83 31.387h-14.82c-.76-6.132-3.32-11.441-7.72-15.938-4.41-4.49-10.8-6.739-19.21-6.739-11.82 0-20.39 5.309-25.7 15.937-3.42 6.787-5.13 14.093-5.13 21.943 0 11.2 2.75 20.617 8.26 28.263 5.51 7.641 13.48 11.462 23.92 11.462 6.69 0 12.27-1.777 16.76-5.335 4.49-3.558 7.62-8.721 9.41-15.507h14.85c-1.88 11.031-6.66 19.595-14.33 25.684zm-84.39-97.896c-14.93 15.118-22.42 33.388-22.42 54.802 0 21.576 7.43 39.965 22.3 55.168 15.04 15.209 33.23 22.808 54.64 22.808 21.4 0 39.61-7.599 54.64-22.808 14.86-15.203 22.29-33.592 22.29-55.168 0-21.414-7.47-39.684-22.41-54.802-14.96-15.205-33.12-22.808-54.52-22.808-21.32 0-39.49 7.603-54.52 22.808zm118.23 118.555c-17.56 17.657-38.81 26.481-63.71 26.481-24.92 0-46.15-8.824-63.71-26.481-17.57-17.656-26.35-38.949-26.35-63.874 0-24.847 8.78-46.013 26.35-63.512 17.56-17.489 38.79-26.24 63.71-26.24 24.9 0 46.15 8.751 63.71 26.24 17.55 17.499 26.34 38.665 26.34 63.512 0 24.925-8.79 46.218-26.34 63.874z"/></g></svg>