<svg xmlns="http://www.w3.org/2000/svg" width="36.194" height="39.335" viewBox="0 0 36.194 39.335"><defs><style>.a{fill:#0cd7fb;}</style></defs><g transform="translate(7.468)"><path class="a" d="M600.516,161.671a10.835,10.835,0,1,1,10.835-10.835A10.848,10.848,0,0,1,600.516,161.671Zm0-18.087a7.252,7.252,0,1,0,7.252,7.252A7.26,7.26,0,0,0,600.516,143.584Z" transform="translate(-589.681 -140)"/></g><g transform="translate(0 23.429)"><path class="a" d="M582.4,286.663H549.792a1.792,1.792,0,0,1-1.724-2.28,18.741,18.741,0,0,1,36.059,0,1.791,1.791,0,0,1-1.724,2.28Zm-30.037-3.584h27.463a15.158,15.158,0,0,0-27.463,0Z" transform="translate(-548 -270.757)"/></g></svg>