<svg xmlns="http://www.w3.org/2000/svg" width="30" height="30" viewBox="0 0 30 30"><defs><style>.a{fill:#c6c6c6;}.b{fill:none;}</style></defs><g transform="translate(-139 -4547)"><path class="a" d="M113.923,88.131a3.656,3.656,0,0,0-2.652-2.5c-2.34-.591-11.721-.591-11.721-.591s-9.381,0-11.721.591a3.657,3.657,0,0,0-2.652,2.5,37.292,37.292,0,0,0,0,13.617,3.656,3.656,0,0,0,2.652,2.5c2.34.591,11.721.591,11.721.591s9.381,0,11.721-.591a3.656,3.656,0,0,0,2.652-2.5,37.293,37.293,0,0,0,0-13.617ZM96.55,99.182V90.7l7.794,4.243Z" transform="translate(54.45 4467.161)"/><rect class="b" width="30" height="30" transform="translate(139 4547)"/></g></svg>