<svg xmlns="http://www.w3.org/2000/svg" width="39.254" height="39.253" viewBox="0 0 39.254 39.253"><defs><style>.a{fill:#0cd7fb;}</style></defs><g transform="translate(0 0)"><path class="a" d="M1739.627,559.253a19.627,19.627,0,1,1,19.627-19.627A19.649,19.649,0,0,1,1739.627,559.253Zm0-36.234a16.607,16.607,0,1,0,16.607,16.607A16.626,16.626,0,0,0,1739.627,523.02Z" transform="translate(-1720 -520)"/><g transform="translate(10.568 10.568)"><path class="a" d="M1806.606,608.117a1.506,1.506,0,0,1-1.067-.442l-15.1-15.1a1.51,1.51,0,1,1,2.135-2.135l15.1,15.1a1.51,1.51,0,0,1-1.068,2.577Z" transform="translate(-1790 -590)"/></g><g transform="translate(10.568 10.568)"><path class="a" d="M1791.509,608.117a1.51,1.51,0,0,1-1.067-2.577l15.1-15.1a1.51,1.51,0,0,1,2.135,2.135l-15.1,15.1A1.506,1.506,0,0,1,1791.509,608.117Z" transform="translate(-1790 -590)"/></g></g></svg>